<svg width="110" height="12" viewBox="0 0 110 12" fill="none" xmlns="http://www.w3.org/2000/svg">
<path d="M2.4168 10.1246C2.12227 9.90117 1.87852 9.62188 1.68555 9.28672C1.50273 8.95156 1.35547 8.59609 1.24375 8.22031C1.14219 7.84453 1.07109 7.45859 1.03047 7.0625C1 6.65625 0.989844 6.27031 1 5.90469C1.09141 5.63047 1.20313 5.38164 1.33516 5.1582C1.46719 4.92461 1.61445 4.70625 1.77695 4.50313C1.93945 4.28984 2.10703 4.0918 2.27969 3.90898C2.4625 3.71602 2.64023 3.52305 2.81289 3.33008C2.87383 3.33008 2.92969 3.34531 2.98047 3.37578C3.02109 3.26406 3.08203 3.16758 3.16328 3.08633C3.24453 3.00508 3.33086 2.93398 3.42227 2.87305C3.51367 2.80195 3.60508 2.73594 3.69648 2.675C3.78789 2.60391 3.86406 2.52266 3.925 2.43125C4.17891 2.37031 4.40234 2.28398 4.59531 2.17227C4.79844 2.06055 4.99141 1.93867 5.17422 1.80664C5.35703 1.67461 5.54492 1.55273 5.73789 1.44102C5.93086 1.3293 6.1543 1.24297 6.4082 1.18203C6.49961 1.08047 6.61133 0.994141 6.74336 0.923047C6.88555 0.851954 7.02266 0.785938 7.15469 0.725001C7.29688 0.664063 7.42891 0.598047 7.55078 0.526954C7.68281 0.45586 7.78945 0.359375 7.8707 0.2375C7.93164 0.31875 8.01797 0.349219 8.12969 0.328907C8.24141 0.298438 8.34297 0.267969 8.43438 0.2375C8.49531 0.227344 8.54609 0.2375 8.58672 0.267969C8.62734 0.298438 8.66289 0.333985 8.69336 0.37461C8.73398 0.405079 8.76445 0.425391 8.78477 0.435547C8.81523 0.445704 8.8457 0.415235 8.87617 0.344141C8.95742 0.354297 8.97773 0.389844 8.93711 0.450782C8.90664 0.511719 8.88633 0.552344 8.87617 0.572657C8.97773 0.552344 9.05898 0.572657 9.11992 0.633594C9.19102 0.684375 9.29766 0.719922 9.43984 0.740235C9.49063 0.791016 9.50586 0.831641 9.48555 0.86211C9.46523 0.892579 9.45 0.94336 9.43984 1.01445C9.80547 1.12617 10.0391 1.30391 10.1406 1.54766C10.2422 1.78125 10.2523 2.03008 10.1711 2.29414C10.0898 2.54805 9.9375 2.78672 9.71406 3.01016C9.50078 3.22344 9.26211 3.36563 8.99805 3.43672C8.6832 3.51797 8.38867 3.59922 8.11445 3.68047C7.85039 3.76172 7.59141 3.85313 7.3375 3.95469C7.09375 4.05625 6.86016 4.17813 6.63672 4.32031C6.42344 4.45234 6.23555 4.60977 6.07305 4.79258C5.78867 4.87383 5.52969 4.98555 5.29609 5.12773C5.07266 5.26992 4.85938 5.42734 4.65625 5.6C4.46328 5.77266 4.27539 5.95547 4.09258 6.14844C3.90977 6.33125 3.72695 6.51406 3.54414 6.69688C3.54414 6.86953 3.51367 7.00156 3.45273 7.09297C3.3918 7.18438 3.32578 7.27578 3.25469 7.36719C3.275 7.56016 3.31563 7.72774 3.37656 7.86992C3.44766 8.00195 3.51875 8.13906 3.58984 8.28125C4.40234 8.525 5.26055 8.67734 6.16445 8.73828C7.07852 8.78906 7.98242 8.81953 8.87617 8.82969C8.96758 8.95156 9.06914 9.06836 9.18086 9.18008C9.30273 9.28164 9.40938 9.38828 9.50078 9.5C9.60234 9.61172 9.67852 9.74375 9.7293 9.89609C9.79023 10.0383 9.80547 10.2109 9.775 10.4141C9.60234 10.5867 9.41445 10.7543 9.21133 10.9168C9.0082 11.0691 8.80508 11.2215 8.60195 11.3738C8.51055 11.384 8.39883 11.384 8.2668 11.3738C8.14492 11.3637 8.01289 11.3586 7.8707 11.3586C7.73867 11.3586 7.60156 11.3688 7.45938 11.3891C7.32734 11.3992 7.20039 11.4297 7.07852 11.4805C6.43867 11.4602 5.78359 11.384 5.11328 11.252C4.44297 11.1098 3.82344 10.9422 3.25469 10.7492C3.14297 10.6172 3.02617 10.4953 2.9043 10.3836C2.78242 10.2617 2.61992 10.1754 2.4168 10.1246ZM19.4184 6.87969C19.4082 7.00156 19.4184 7.11836 19.4488 7.23008C19.4793 7.3418 19.5148 7.45352 19.5555 7.56524C19.6063 7.6668 19.652 7.77344 19.6926 7.88516C19.7332 7.99688 19.7637 8.10859 19.784 8.22031C19.8043 8.3625 19.8043 8.51992 19.784 8.69258C19.7637 8.85508 19.7281 9.01758 19.6773 9.18008C19.6266 9.33242 19.5605 9.47461 19.4793 9.60664C19.398 9.72852 19.3016 9.81992 19.1898 9.88086C19.0477 10.0637 18.875 10.2059 18.6719 10.3074C18.4688 10.409 18.2809 10.5309 18.1082 10.673C17.9965 10.7441 17.8695 10.7949 17.7273 10.8254C17.5953 10.8559 17.4582 10.8863 17.316 10.9168C17.2043 10.9777 17.0723 11.0438 16.9199 11.1148C16.7676 11.1758 16.6102 11.2367 16.4477 11.2977C16.2852 11.3484 16.1227 11.3891 15.9602 11.4195C15.7977 11.4398 15.6555 11.4449 15.5336 11.4348C15.2289 11.5465 14.9293 11.6176 14.6348 11.648C14.3504 11.6887 14.0152 11.6684 13.6293 11.5871C13.2637 11.6379 12.9234 11.6227 12.6086 11.5414C12.3039 11.4602 12.0297 11.3332 11.7859 11.1605C11.5523 10.9777 11.3441 10.7645 11.1613 10.5207C10.9887 10.2668 10.8465 10.0027 10.7348 9.72852C10.6535 9.14961 10.6738 8.62656 10.7957 8.15938C10.9176 7.68203 11.0902 7.24531 11.3137 6.84922C11.5473 6.44297 11.8113 6.07227 12.1059 5.73711C12.4004 5.3918 12.6848 5.05664 12.959 4.73164C13.0199 4.75195 13.0656 4.75195 13.0961 4.73164C13.1367 4.70117 13.1723 4.66563 13.2027 4.625C13.2332 4.57422 13.2637 4.52852 13.2941 4.48789C13.3348 4.44727 13.3805 4.42188 13.4313 4.41172C13.5023 4.25938 13.6039 4.14766 13.7359 4.07656C13.8781 3.99531 13.9898 3.88359 14.0711 3.74141C14.1625 3.72109 14.2387 3.69063 14.2996 3.65C14.3605 3.60938 14.4164 3.56367 14.4672 3.51289C14.5281 3.46211 14.5891 3.41641 14.65 3.37578C14.7109 3.325 14.782 3.28945 14.8633 3.26914V3.10156C15.0461 3.02031 15.1781 2.92891 15.2594 2.82734C15.3508 2.71563 15.4574 2.58359 15.5793 2.43125C15.6707 2.42109 15.7418 2.41602 15.7926 2.41602C15.8535 2.41602 15.9398 2.40586 16.0516 2.38555C16.1328 2.24336 16.2039 2.13672 16.2648 2.06563C16.3359 1.99453 16.4375 1.91836 16.5695 1.83711C16.6914 1.89805 16.8234 1.93867 16.9656 1.95898C17.118 1.9793 17.25 2.04531 17.3617 2.15703C17.3719 2.25859 17.4023 2.33984 17.4531 2.40078C17.5039 2.45156 17.5598 2.50234 17.6207 2.55313C17.6816 2.59375 17.7375 2.63945 17.7883 2.69023C17.8492 2.74102 17.8898 2.81211 17.9102 2.90352C17.9508 2.91367 17.9762 2.90859 17.9863 2.88828C18.0066 2.86797 18.0371 2.86289 18.0777 2.87305C18.1082 3.01523 18.1438 3.11172 18.1844 3.1625C18.225 3.20313 18.2656 3.28945 18.3063 3.42148C18.2555 3.52305 18.2148 3.62969 18.1844 3.74141C18.1641 3.84297 18.1031 3.91914 18.0016 3.96992C17.9914 4.04102 18.0117 4.08164 18.0625 4.0918C18.1133 4.0918 18.1438 4.11719 18.1539 4.16797C18.1641 4.25938 18.1488 4.32539 18.1082 4.36602C18.352 4.76211 18.5703 5.18359 18.7633 5.63047C18.9563 6.06719 19.1746 6.48359 19.4184 6.87969ZM17.5141 8.32695C17.5547 8.21524 17.6055 8.12383 17.6664 8.05274C17.7375 7.98164 17.7781 7.875 17.7883 7.73281C17.7375 7.65156 17.707 7.59063 17.6969 7.55C17.6867 7.49922 17.6816 7.42305 17.6816 7.32149C17.4582 7.00664 17.2652 6.67149 17.1027 6.31602C16.9402 5.95039 16.7574 5.61016 16.5543 5.29531C16.534 5.33594 16.4984 5.37656 16.4477 5.41719C16.3969 5.45781 16.341 5.44766 16.2801 5.38672C16.2598 5.46797 16.2242 5.52891 16.1734 5.56953C16.1227 5.6 16.0668 5.61523 16.0059 5.61523C15.9449 5.60508 15.8789 5.58984 15.8078 5.56953C15.7469 5.53906 15.691 5.50352 15.6402 5.46289C15.3457 5.69648 15.0512 5.925 14.7566 6.14844C14.4621 6.37188 14.198 6.63086 13.9645 6.92539C13.9238 6.9457 13.8984 6.95586 13.8883 6.95586C13.8781 6.9457 13.8477 6.95078 13.7969 6.97109C13.7156 7.16406 13.6141 7.3418 13.4922 7.5043C13.3805 7.65664 13.2688 7.81406 13.157 7.97656C13.0453 8.13906 12.9488 8.31172 12.8676 8.49453C12.7863 8.67734 12.7406 8.89063 12.7305 9.13438C12.9031 9.27656 13.1063 9.36289 13.3398 9.39336C13.5734 9.42383 13.8121 9.42891 14.0559 9.40859C14.3098 9.38828 14.5535 9.35781 14.7871 9.31719C15.0309 9.26641 15.2543 9.24102 15.4574 9.24102C15.884 9.13945 16.2496 9.00742 16.5543 8.84492C16.859 8.67227 17.1789 8.49961 17.5141 8.32695ZM30.8898 11.1758C30.7883 11.2266 30.6918 11.2723 30.6004 11.3129C30.5191 11.3535 30.4227 11.3738 30.3109 11.3738C29.9148 11.0793 29.7066 10.5664 29.6863 9.83516C29.6762 9.10391 29.8336 8.17461 30.1586 7.04727C30.2094 7.0168 30.2348 6.95586 30.2348 6.86445L30.0977 6.71211C30.057 6.71211 30.0164 6.71719 29.9758 6.72734C29.9453 6.7375 29.9199 6.77305 29.8996 6.83399C29.6355 7.02695 29.3461 7.23008 29.0313 7.44336C28.7164 7.64649 28.3863 7.83945 28.041 8.02227C27.7059 8.19492 27.3605 8.33711 27.0051 8.44883C26.6598 8.56055 26.3195 8.61641 25.9844 8.61641C25.1313 8.61641 24.4914 8.18477 24.0648 7.32149L23.943 7.09297L23.8211 7.29102C23.7906 7.33164 23.7449 7.41797 23.684 7.55C23.623 7.67188 23.5621 7.81406 23.5012 7.97656C23.4402 8.13906 23.3844 8.30664 23.3336 8.4793C23.293 8.6418 23.2777 8.78399 23.2879 8.90586C23.1965 8.99727 23.1 9.10391 22.9984 9.22578C22.8969 9.34766 22.8207 9.48477 22.7699 9.63711C22.7496 9.71836 22.7598 9.79453 22.8004 9.86563C22.7801 9.95703 22.7344 10.0281 22.6633 10.0789C22.6227 10.1297 22.577 10.1805 22.5262 10.2313C22.4855 10.2719 22.45 10.3176 22.4195 10.3684C22.3992 10.4191 22.384 10.4699 22.3738 10.5207C22.3738 10.5715 22.3688 10.6223 22.3586 10.673C22.3586 10.7441 22.3484 10.8102 22.3281 10.8711C22.1555 11.2266 22.0184 11.4551 21.9168 11.5566C21.8152 11.6684 21.6781 11.7242 21.5055 11.7242C21.4242 11.7242 21.2922 11.709 21.1094 11.6785C20.9773 11.5363 20.8555 11.3434 20.7438 11.0996C20.6422 10.8457 20.5609 10.5766 20.5 10.2922C20.4492 10.0078 20.4238 9.72344 20.4238 9.43906C20.434 9.14453 20.4848 8.89063 20.5762 8.67734C20.5762 8.66719 20.6168 8.56563 20.698 8.37266C20.7793 8.17969 20.8809 7.93086 21.0027 7.62617C21.1348 7.32149 21.282 6.98633 21.4445 6.6207C21.607 6.24492 21.7695 5.88438 21.932 5.53906C22.0945 5.18359 22.2469 4.85859 22.3891 4.56406C22.5414 4.26953 22.6684 4.04609 22.7699 3.89375C22.8512 3.77188 22.9223 3.66016 22.9832 3.55859C23.0543 3.44688 23.1203 3.34023 23.1813 3.23867C23.3641 2.92383 23.5367 2.66484 23.6992 2.46172C23.8719 2.24844 24.1207 2.08086 24.4457 1.95898C24.6691 2.05039 24.8316 2.15703 24.9332 2.27891L24.9637 2.44648C25.0043 2.54805 25.0652 2.59883 25.1465 2.59883C25.2582 2.6293 25.3496 2.65977 25.4207 2.69023C25.502 2.71055 25.5883 2.73086 25.6797 2.75117C25.7508 2.83242 25.8168 2.92891 25.8777 3.04063C25.959 3.1625 26.0352 3.28438 26.1063 3.40625C26.1875 3.51797 26.2484 3.63477 26.2891 3.75664C26.3398 3.86836 26.3652 3.98516 26.3652 4.10703C26.3754 4.22891 26.3551 4.35586 26.3043 4.48789L26.3195 4.64023C26.3703 4.73164 26.3805 4.85859 26.35 5.02109C26.3398 5.09219 26.3348 5.16836 26.3348 5.24961C26.3348 5.3207 26.3449 5.40195 26.3652 5.49336C26.548 5.63555 26.7105 5.70664 26.8527 5.70664C27.0152 5.70664 27.1625 5.67109 27.2945 5.6C27.4367 5.51875 27.5688 5.4375 27.6906 5.35625C27.7719 5.29531 27.8531 5.24453 27.9344 5.20391C28.0156 5.15313 28.0969 5.12266 28.1781 5.1125C28.3609 4.93984 28.5234 4.7875 28.6656 4.65547C28.818 4.52344 28.9754 4.39141 29.1379 4.25938C29.4426 4.01563 29.7371 3.75156 30.0215 3.46719C30.3059 3.18281 30.5344 2.82734 30.707 2.40078C30.8086 2.33984 30.9152 2.30938 31.027 2.30938C31.1387 2.30938 31.2555 2.33477 31.3773 2.38555C31.4992 2.43633 31.616 2.48711 31.7277 2.53789C31.7582 2.5582 31.7836 2.57344 31.8039 2.58359C31.8344 2.59375 31.8598 2.60391 31.8801 2.61406C31.8801 2.71563 31.9207 2.80195 32.002 2.87305C32.0426 2.90352 32.068 2.92383 32.0781 2.93398C32.0883 2.94414 32.1035 2.9543 32.1238 2.96445C32.2762 3.0457 32.3727 3.12695 32.4133 3.2082C32.4844 3.4418 32.6113 3.61953 32.7941 3.74141C32.7738 3.84297 32.7738 3.93945 32.7941 4.03086C32.8246 4.11211 32.8602 4.19844 32.9008 4.28984C32.9109 4.32031 32.9211 4.35078 32.9313 4.38125C32.9414 4.41172 32.9566 4.44727 32.977 4.48789L32.6875 4.45742L32.7332 4.74688C32.7535 4.88906 32.7383 5.04648 32.6875 5.21914C32.6469 5.3918 32.5961 5.52891 32.5352 5.63047C32.5453 5.89453 32.5504 6.10274 32.5504 6.25508C32.5605 6.39727 32.5555 6.53438 32.5352 6.66641C32.5148 6.78828 32.4844 6.90508 32.4438 7.0168C32.4133 7.12852 32.3676 7.25039 32.3066 7.38242C32.3473 8.03242 32.2711 8.62656 32.0781 9.16484C31.8953 9.69297 31.7023 10.1906 31.4992 10.6578C31.4789 10.7086 31.4535 10.7594 31.423 10.8102C31.4027 10.8609 31.3824 10.9117 31.3621 10.9625C31.2707 10.993 31.1895 11.0285 31.1184 11.0691C31.0473 11.0996 30.9711 11.1352 30.8898 11.1758ZM38.7965 2.00469C39.223 2.05547 39.6039 2.1418 39.9391 2.26367C40.2742 2.38555 40.5586 2.54805 40.7922 2.75117C40.9547 3.00508 41.107 3.2793 41.2492 3.57383C41.4016 3.86836 41.5133 4.17813 41.5844 4.50313C41.6656 4.81797 41.7012 5.14297 41.691 5.47813C41.691 5.81328 41.6199 6.15352 41.4777 6.49883C41.1832 6.86445 40.8227 7.16406 40.3961 7.39766C39.9797 7.62109 39.5277 7.80391 39.0402 7.94609C38.5527 8.08828 38.0449 8.21016 37.5168 8.31172C36.9988 8.41328 36.491 8.51484 35.9934 8.61641C36.0035 8.85 36.0035 9.09883 35.9934 9.36289C35.9934 9.6168 35.968 9.87578 35.9172 10.1398C35.8766 10.3938 35.8105 10.6426 35.7191 10.8863C35.6277 11.1301 35.5059 11.3535 35.3535 11.5566C35.1809 11.5566 35.0031 11.577 34.8203 11.6176C34.6375 11.6684 34.475 11.709 34.3328 11.7395C34.2617 11.6988 34.1957 11.6582 34.1348 11.6176C34.084 11.5871 34.0078 11.5668 33.9063 11.5566C33.9266 11.4551 33.9012 11.3535 33.8301 11.252C33.759 11.1402 33.6879 11.0285 33.6168 10.9168C33.5457 10.8051 33.4949 10.6984 33.4645 10.5969C33.4441 10.4953 33.4949 10.3988 33.6168 10.3074C33.5457 10.2363 33.5102 10.1449 33.5102 10.0332C33.5813 9.91133 33.6422 9.74375 33.693 9.53047C33.7539 9.31719 33.7996 9.10899 33.8301 8.90586C33.8707 8.69258 33.8809 8.49961 33.8605 8.32695C33.8402 8.1543 33.7387 8.02734 33.5559 7.94609C33.566 7.92578 33.5863 7.91563 33.6168 7.91563C33.6473 7.91563 33.6777 7.91055 33.7082 7.90039C33.627 7.83945 33.5762 7.75313 33.5559 7.64141C33.5457 7.52969 33.5102 7.4332 33.4492 7.35195C33.4695 7.30117 33.4848 7.25547 33.4949 7.21484C33.5051 7.17422 33.5406 7.15899 33.6016 7.16914C33.5711 6.98633 33.5711 6.81367 33.6016 6.65117C33.6422 6.48867 33.698 6.33633 33.7691 6.19414C33.8402 6.0418 33.9266 5.89453 34.0281 5.75234C34.1297 5.61016 34.2262 5.46797 34.3176 5.32578C34.3887 5.31563 34.4293 5.32578 34.4395 5.35625C34.4598 5.38672 34.4953 5.38164 34.5461 5.34102C34.6781 5.23945 34.7695 5.13281 34.8203 5.02109C34.8711 4.90938 34.8965 4.78242 34.8965 4.64023C34.9676 4.42695 35.0539 4.21367 35.1555 4.00039C35.257 3.77695 35.3688 3.57383 35.4906 3.39102C35.6125 3.2082 35.7445 3.0457 35.8867 2.90352C36.0391 2.76133 36.1965 2.65469 36.359 2.58359C36.4809 2.48203 36.6332 2.39063 36.816 2.30938C36.9988 2.21797 37.1969 2.15195 37.4102 2.11133C37.6234 2.06055 37.8367 2.03516 38.05 2.03516C38.2734 2.025 38.4766 2.04531 38.6594 2.09609C38.7102 2.11641 38.7355 2.10625 38.7355 2.06563C38.7457 2.025 38.766 2.00469 38.7965 2.00469ZM38.1719 5.6457C38.4258 5.53398 38.6949 5.44766 38.9793 5.38672C39.2738 5.31563 39.5176 5.18867 39.7105 5.00586C39.5887 4.89414 39.4109 4.79766 39.1773 4.71641C38.9438 4.625 38.6898 4.56914 38.4156 4.54883C38.1414 4.52852 37.8621 4.55391 37.5777 4.625C37.3035 4.68594 37.0648 4.80781 36.8617 4.99063C36.8008 5.17344 36.75 5.3207 36.7094 5.43242C36.6688 5.53398 36.6129 5.66094 36.5418 5.81328C36.5621 5.86406 36.5926 5.90469 36.6332 5.93516C36.684 5.95547 36.7195 5.99102 36.7398 6.0418C36.9734 5.91992 37.207 5.85391 37.4406 5.84375C37.6844 5.82344 37.9281 5.75742 38.1719 5.6457ZM48.9883 10.1703C48.9273 10.343 48.8359 10.5207 48.7141 10.7035C48.6023 10.8762 48.4652 11.0336 48.3027 11.1758C48.1504 11.3078 47.9777 11.4195 47.7848 11.5109C47.5918 11.6023 47.3887 11.6531 47.1754 11.6633C47.0434 11.6328 46.952 11.5973 46.9012 11.5566C46.8605 11.5262 46.8148 11.4957 46.7641 11.4652C46.7336 11.4449 46.7031 11.4297 46.6727 11.4195C46.6523 11.3992 46.632 11.384 46.6117 11.3738L46.4289 11.2977L46.4898 11.0996C46.5102 11.0184 46.5051 10.9574 46.4746 10.9168C46.4441 10.866 46.3832 10.8 46.2918 10.7188C46.2613 10.6883 46.2309 10.6578 46.2004 10.6273C46.1699 10.5969 46.1445 10.5664 46.1242 10.5359L45.8652 10.2465L46.2766 10.1398C46.5305 10.0688 46.698 9.97734 46.7793 9.86563C46.8707 9.75391 46.9063 9.56602 46.8859 9.30195C46.6828 9.26133 46.5102 9.25625 46.368 9.28672C46.2359 9.31719 46.0988 9.35274 45.9566 9.39336C45.7738 9.44414 45.5859 9.48984 45.393 9.53047C45.2102 9.56094 45.007 9.57617 44.7836 9.57617C44.7023 9.57617 44.6262 9.57617 44.5551 9.57617C44.484 9.56602 44.4078 9.55586 44.3266 9.5457L44.1742 9.51524C44.1539 9.40352 44.1336 9.34258 44.1133 9.33242C44.093 9.31211 44.0727 9.2918 44.0523 9.27149C44.0016 9.2207 43.9457 9.15469 43.8848 9.07344C43.834 8.98203 43.8238 8.87031 43.8543 8.73828C43.8035 8.64688 43.773 8.55547 43.7629 8.46406C43.702 8.58594 43.6563 8.71289 43.6258 8.84492L43.5648 8.99727L43.4125 9.02774C43.3922 9.03789 43.377 9.06328 43.3668 9.10391C43.3566 9.13438 43.3516 9.15977 43.3516 9.18008L43.2754 9.43906C43.2551 9.45938 43.2348 9.47969 43.2145 9.5C43.1941 9.51016 43.1738 9.52539 43.1535 9.5457C43.1332 9.63711 43.1078 9.72852 43.0773 9.81992C43.0469 9.91133 43.0164 9.99766 42.9859 10.0789C42.9352 10.2109 42.8895 10.343 42.8488 10.475C42.8184 10.5969 42.8082 10.7188 42.8184 10.8406L42.7574 11.0082C42.7066 11.0691 42.6508 11.1199 42.5898 11.1605C42.5289 11.191 42.468 11.2215 42.407 11.252C42.3867 11.2723 42.3563 11.2926 42.3156 11.3129C42.2852 11.323 42.2598 11.3332 42.2395 11.3434L42.1938 11.5109L42.0109 11.5414C41.8992 11.5617 41.818 11.577 41.7672 11.5871C41.7266 11.5973 41.6758 11.6023 41.6148 11.6023L41.4625 11.5871C41.3508 11.4957 41.2645 11.4246 41.2035 11.3738C41.1426 11.3129 41.0715 11.257 40.9902 11.2063C40.8988 11.0844 40.848 10.993 40.8379 10.932C40.8277 10.8711 40.8176 10.8152 40.8074 10.7645C40.7871 10.7035 40.777 10.6527 40.777 10.6121C40.7668 10.5715 40.7516 10.541 40.7313 10.5207L40.5332 10.3379L40.7008 10.2008L40.716 9.9418C40.9191 9.42383 41.1324 8.92617 41.3559 8.44883C41.5895 7.97149 41.8281 7.48399 42.0719 6.98633C42.1531 6.82383 42.2293 6.66133 42.3004 6.49883C42.3816 6.33633 42.4629 6.17383 42.5441 6.01133C42.534 5.98086 42.5289 5.94531 42.5289 5.90469C42.5289 5.86406 42.5391 5.81836 42.5594 5.76758C42.6711 5.59492 42.7625 5.44258 42.8336 5.31055C42.9047 5.16836 42.9758 5.02617 43.0469 4.88398C43.1281 4.71133 43.2094 4.54375 43.2906 4.38125C43.382 4.21875 43.4938 4.05117 43.6258 3.87852L43.8695 3.77188C43.9 3.76172 43.9355 3.75156 43.9762 3.74141C44.0168 3.72109 44.0625 3.71094 44.1133 3.71094L44.3418 3.74141C44.6262 3.60938 44.875 3.42656 45.0883 3.19297C45.3016 2.94922 45.5199 2.65977 45.7434 2.32461L45.8957 2.11133L46.0938 2.2332C46.1445 2.26367 46.2156 2.29414 46.307 2.32461C46.3984 2.34492 46.4949 2.37031 46.5965 2.40078C46.7793 2.44141 46.952 2.48711 47.1145 2.53789C47.277 2.58867 47.409 2.66484 47.5105 2.76641C47.5715 2.92891 47.607 3.05078 47.6172 3.13203C47.6273 3.21328 47.6426 3.29453 47.6629 3.37578C47.6934 3.54844 47.7188 3.72109 47.7391 3.89375C47.7695 4.06641 47.7898 4.25938 47.8 4.47266C47.8508 4.64531 47.8914 4.81797 47.9219 4.99063C47.9625 5.15313 47.998 5.3207 48.0285 5.49336C48.0793 5.73711 48.1301 5.97578 48.1809 6.20938C48.2316 6.43281 48.2977 6.64609 48.3789 6.84922C48.4602 6.84922 48.5109 6.8543 48.5313 6.86445C48.582 6.84414 48.6328 6.82891 48.6836 6.81875C48.7445 6.80859 48.8105 6.79844 48.8816 6.78828L49.0492 6.77305L49.1102 6.92539C49.1203 6.97617 49.1711 7.02695 49.2625 7.07774C49.3945 7.08789 49.491 7.11836 49.552 7.16914C49.6129 7.20977 49.6688 7.25547 49.7195 7.30625C49.7602 7.34688 49.8008 7.37734 49.8414 7.39766L50.0699 7.48906L49.948 7.71758C49.8465 7.90039 49.6992 8.07813 49.5063 8.25078C49.3234 8.41328 49.1152 8.55039 48.8816 8.66211C48.8918 8.72305 48.8969 8.78399 48.8969 8.84492C48.907 8.8957 48.9223 8.95156 48.9426 9.0125C48.973 9.18516 48.9984 9.36289 49.0188 9.5457C49.0391 9.72852 49.0391 9.91641 49.0188 10.1094L48.9883 10.1703ZM44.5855 7.53477C44.8902 7.51445 45.1645 7.49414 45.4082 7.47383C45.6621 7.44336 45.9414 7.39766 46.2461 7.33672C46.175 7.03203 46.0988 6.71719 46.0176 6.39219C45.9363 6.05703 45.85 5.72695 45.7586 5.40195L45.6672 5.5543C45.4641 5.76758 45.266 6.00625 45.073 6.27031C44.8902 6.53438 44.7328 6.7832 44.6008 7.0168C44.5398 7.1082 44.4789 7.19961 44.418 7.29102C44.357 7.38242 44.3012 7.47383 44.2504 7.56524C44.3113 7.55508 44.3672 7.55 44.418 7.55C44.4789 7.55 44.5348 7.54492 44.5855 7.53477ZM53.1168 8.67734C53.0254 8.69766 52.9594 8.75352 52.9188 8.84492C52.8781 8.92617 52.8375 9.0125 52.7969 9.10391C52.7664 9.19531 52.7309 9.28164 52.6902 9.36289C52.6598 9.43399 52.609 9.46953 52.5379 9.46953C52.5277 9.55078 52.4973 9.62188 52.4465 9.68281C52.4059 9.74375 52.3652 9.80977 52.3246 9.88086C52.284 9.9418 52.2535 10.0129 52.2332 10.0941C52.2129 10.1652 52.223 10.2516 52.2637 10.3531C52.1824 10.4141 52.1316 10.5004 52.1113 10.6121C52.091 10.7238 52.0656 10.8305 52.0352 10.932C52.0148 11.0336 51.9742 11.1199 51.9133 11.191C51.8523 11.2621 51.7406 11.2926 51.5781 11.2824C51.5477 11.323 51.5426 11.3484 51.5629 11.3586C51.5832 11.3688 51.5984 11.4043 51.6086 11.4652C51.4969 11.4449 51.4105 11.45 51.3496 11.4805C51.2988 11.5211 51.2328 11.5465 51.1516 11.5566C50.9586 11.4957 50.7961 11.3891 50.6641 11.2367C50.5422 11.0844 50.4305 10.9168 50.3289 10.734C50.2375 10.541 50.1512 10.348 50.0699 10.1551C49.9988 9.96211 49.9277 9.79453 49.8566 9.65234C49.8871 9.54063 49.8922 9.43399 49.8719 9.33242C49.8516 9.2207 49.816 9.1293 49.7652 9.0582C50.2629 8.00195 50.8063 6.87461 51.3953 5.67617C51.9844 4.47773 52.543 3.29453 53.0711 2.12656C53.3047 2.21797 53.5332 2.32461 53.7566 2.44648C53.9902 2.5582 54.1984 2.69023 54.3813 2.84258C54.5742 2.99492 54.7367 3.17266 54.8688 3.37578C55.0008 3.56875 55.0871 3.78711 55.1277 4.03086C55.1074 4.0918 55.082 4.11719 55.0516 4.10703C55.0313 4.08672 55.0109 4.0918 54.9906 4.12227C55.0313 4.17305 55.0516 4.20859 55.0516 4.22891C55.0617 4.24922 55.0617 4.26953 55.0516 4.28984C55.0516 4.31016 55.0516 4.34063 55.0516 4.38125C55.0516 4.41172 55.0668 4.45742 55.0973 4.51836C55.0566 4.5082 55.0262 4.51328 55.0059 4.53359C54.9957 4.55391 54.9652 4.55391 54.9145 4.53359C54.9551 4.64531 54.9652 4.73672 54.9449 4.80781C54.9348 4.87891 54.9145 4.94492 54.884 5.00586C54.8535 5.05664 54.8281 5.11758 54.8078 5.18867C54.7875 5.24961 54.7926 5.33086 54.823 5.43242C54.7926 5.43242 54.7672 5.44258 54.7469 5.46289C54.7367 5.47305 54.7266 5.48828 54.7164 5.50859C54.7063 5.51875 54.691 5.53398 54.6707 5.5543C54.6605 5.56445 54.6402 5.56445 54.6098 5.5543C54.6402 5.77773 54.6504 6.00117 54.6402 6.22461C54.6301 6.44805 54.6199 6.67656 54.6098 6.91016C54.6098 7.13359 54.6148 7.37227 54.625 7.62617C54.6352 7.86992 54.6707 8.12383 54.7316 8.38789C55.0973 8.17461 55.3867 7.90039 55.6 7.56524C55.8234 7.23008 56.0012 6.8543 56.1332 6.43789C56.2754 6.02149 56.382 5.57461 56.4531 5.09727C56.5242 4.61992 56.6004 4.13242 56.6816 3.63477C56.773 3.54336 56.8441 3.43164 56.8949 3.29961C56.9457 3.16758 56.9914 3.03047 57.032 2.88828C57.0727 2.73594 57.1133 2.58867 57.1539 2.44648C57.1945 2.29414 57.2453 2.15703 57.3063 2.03516C57.4586 2.05547 57.5855 2.10625 57.6871 2.1875C57.7988 2.25859 57.9004 2.33984 57.9918 2.43125C58.0832 2.5125 58.1797 2.59375 58.2813 2.675C58.3828 2.74609 58.5098 2.7918 58.6621 2.81211C58.784 2.98477 58.8957 3.15234 58.9973 3.31484C59.0988 3.47734 59.1648 3.65 59.1953 3.83281C59.1445 3.91406 59.1039 4.00547 59.0734 4.10703C59.0531 4.20859 59.0277 4.31016 58.9973 4.41172C58.9668 4.51328 58.9262 4.60977 58.8754 4.70117C58.8246 4.78242 58.7535 4.85352 58.6621 4.91445C58.6316 5.17852 58.591 5.42227 58.5402 5.6457C58.4996 5.85899 58.4539 6.07227 58.4031 6.28555C58.3625 6.49883 58.327 6.72227 58.2965 6.95586C58.266 7.1793 58.2559 7.42813 58.266 7.70234C58.1848 7.93594 58.0984 8.18477 58.007 8.44883C57.9156 8.71289 57.8445 8.95156 57.7938 9.16484C57.6313 9.29688 57.5043 9.4543 57.4129 9.63711C57.3215 9.81992 57.225 10.0027 57.1234 10.1855C57.0828 10.2262 57.0574 10.2363 57.0473 10.216C57.0371 10.1957 57.0016 10.1805 56.9406 10.1703C56.9508 10.2109 56.9508 10.2414 56.9406 10.2617C56.9305 10.282 56.9152 10.3023 56.8949 10.3227C56.8848 10.3328 56.8746 10.3531 56.8645 10.3836C56.8645 10.4141 56.8746 10.4547 56.8949 10.5055C56.7527 10.5664 56.6258 10.6527 56.5141 10.7645C56.4023 10.8762 56.2805 10.9777 56.1484 11.0691C56.0266 11.1605 55.8742 11.2215 55.6914 11.252C55.5188 11.2824 55.2902 11.2469 55.0059 11.1453C54.5895 10.8406 54.2188 10.4902 53.8938 10.0941C53.5789 9.69805 53.3199 9.22578 53.1168 8.67734ZM63.6742 7.45859C63.6031 7.51953 63.5422 7.5957 63.4914 7.68711C63.4406 7.76836 63.3898 7.85469 63.3391 7.94609C63.2883 8.05781 63.2324 8.16445 63.1715 8.26602C63.1105 8.36758 63.0344 8.45899 62.943 8.54024C62.8922 8.69258 62.8414 8.81445 62.7906 8.90586C62.7398 8.98711 62.6586 9.08359 62.5469 9.19531C62.4453 9.60156 62.2066 10.0434 61.8309 10.5207C61.8207 10.6121 61.7902 10.7035 61.7395 10.7949C61.6988 10.8762 61.6531 10.9574 61.6023 11.0387C61.582 11.0691 61.5617 11.1047 61.5414 11.1453C61.5211 11.1758 61.5059 11.2012 61.4957 11.2215L61.4652 11.3738C61.4145 11.4551 61.3586 11.5262 61.2977 11.5871C61.2367 11.648 61.1809 11.7039 61.1301 11.7547C61.1098 11.7852 61.0742 11.8258 61.0234 11.8766L60.7949 11.968C60.0535 11.8664 59.6016 11.4703 59.4391 10.7797L59.4543 10.6273C59.4746 10.5766 59.4898 10.5258 59.5 10.475C59.5203 10.4141 59.5406 10.3531 59.5609 10.2922C59.6016 10.15 59.6473 10.0078 59.698 9.86563C59.759 9.72344 59.8453 9.59649 59.957 9.48477C59.9773 9.41367 60.023 9.30195 60.0941 9.14961C60.1652 8.98711 60.2871 8.74844 60.4598 8.43359C60.602 8.18984 60.7137 7.99688 60.7949 7.85469C60.8762 7.7125 60.9422 7.60078 60.993 7.51953C60.8914 7.35703 60.7695 7.20977 60.6273 7.07774C60.4953 6.82383 60.3785 6.58008 60.277 6.34649C60.1855 6.11289 60.1145 5.90469 60.0637 5.72188C60.0535 5.58984 60.0383 5.47813 60.018 5.38672C59.9977 5.29531 59.9773 5.19883 59.957 5.09727C59.9266 4.98555 59.9012 4.87383 59.8809 4.76211C59.8605 4.65039 59.8504 4.53359 59.8504 4.41172C59.7996 4.34063 59.7691 4.26953 59.759 4.19844L59.7895 4.04609C59.8199 3.975 59.825 3.88359 59.8047 3.77188C59.7844 3.65 59.759 3.52813 59.7285 3.40625C59.7082 3.30469 59.6828 3.19297 59.6523 3.07109C59.632 2.94922 59.627 2.82734 59.6371 2.70547C59.6473 2.58359 59.6777 2.47188 59.7285 2.37031C59.7895 2.25859 59.8859 2.16211 60.018 2.08086L60.277 2.06563C60.3684 2.11641 60.4547 2.16719 60.5359 2.21797C60.6273 2.25859 60.7137 2.3043 60.7949 2.35508C60.9066 2.40586 61.0133 2.45664 61.1148 2.50742C61.2164 2.5582 61.323 2.62422 61.4348 2.70547L61.5414 2.91875L61.7395 3.08633V3.25391C61.7496 3.29453 61.7547 3.35039 61.7547 3.42148C61.7547 3.55352 61.775 3.63477 61.8156 3.66523L61.8766 3.84805C61.8766 3.99023 61.8918 4.12734 61.9223 4.25938C61.9527 4.38125 61.9832 4.49805 62.0137 4.60977C62.0441 4.72148 62.0746 4.83828 62.1051 4.96016C62.1355 5.08203 62.1406 5.21406 62.1203 5.35625C62.1813 5.32578 62.232 5.29023 62.2727 5.24961C62.293 5.2293 62.3133 5.21406 62.3336 5.20391C62.3539 5.19375 62.3742 5.17852 62.3945 5.1582L63.2934 3.93945L63.2629 3.78711L63.5828 3.48242C63.6641 3.40117 63.7402 3.325 63.8113 3.25391C63.8926 3.18281 63.9586 3.10664 64.0094 3.02539L64.177 2.90352C64.502 2.3957 64.9641 2.08086 65.5633 1.95898L65.7766 1.92852L65.8375 2.12656C65.8781 2.23828 65.9594 2.33984 66.0813 2.43125C66.2133 2.52266 66.3504 2.60898 66.4926 2.69023L66.6297 2.78164C66.6805 2.8832 66.7059 2.95938 66.7059 3.01016C66.7059 3.06094 66.7008 3.10664 66.6906 3.14727L66.7516 3.29961C66.6703 3.54336 66.5688 3.72109 66.4469 3.83281C66.3352 3.94453 66.2234 4.04609 66.1117 4.1375C66.0203 4.21875 65.934 4.29492 65.8527 4.36602C65.7816 4.42695 65.7258 4.5082 65.6852 4.60977L65.5785 4.73164C65.3652 4.85352 65.2281 5.01602 65.1672 5.21914L65.1215 5.40195H64.9387C64.9285 5.40195 64.9031 5.42227 64.8625 5.46289C64.832 5.49336 64.7813 5.57969 64.7102 5.72188C64.6391 5.82344 64.5883 5.88945 64.5578 5.91992C64.5273 5.95039 64.502 5.97578 64.4816 5.99609C64.4715 6.03672 64.4563 6.07734 64.4359 6.11797C64.4258 6.14844 64.4105 6.18906 64.3902 6.23984C64.2582 6.37188 64.177 6.47344 64.1465 6.54453C64.116 6.60547 64.0805 6.67656 64.0398 6.75781C63.9992 6.83906 63.9586 6.92031 63.918 7.00156C63.8875 7.07266 63.8316 7.14883 63.7504 7.23008L63.6742 7.45859ZM71.6875 10.8863C71.6469 10.8457 71.6113 10.8 71.5809 10.7492C71.5504 10.6883 71.525 10.6121 71.5047 10.5207C71.3625 10.348 71.2508 10.15 71.1695 9.92656C71.0883 9.70313 71.0324 9.47461 71.002 9.24102C70.9715 8.99727 70.9664 8.75352 70.9867 8.50977C71.007 8.26602 71.0426 8.0375 71.0934 7.82422C71.1238 7.72266 71.1492 7.61602 71.1695 7.5043C71.2203 7.31133 71.2711 7.12344 71.3219 6.94063C71.3727 6.74766 71.4488 6.59024 71.5504 6.46836C71.5098 6.35664 71.5148 6.23477 71.5656 6.10274C71.6164 5.9707 71.6672 5.84883 71.718 5.73711C71.7383 5.70664 71.7535 5.68125 71.7637 5.66094C71.7738 5.63047 71.784 5.60508 71.7941 5.58477C71.916 5.2293 72.0328 4.88906 72.1445 4.56406C72.2664 4.22891 72.3832 3.90898 72.4949 3.6043C72.6981 3.0457 72.891 2.49727 73.0738 1.95898C73.2668 1.4207 73.4395 0.846876 73.5918 0.2375C73.6731 0.176563 73.7441 0.135938 73.8051 0.115625C73.8254 0.105469 73.8508 0.095313 73.8813 0.0851567C73.9117 0.0750005 73.9473 0.0699224 73.9879 0.0699224C74.2012 0.181641 74.45 0.288282 74.7344 0.389844C75.0289 0.48125 75.2777 0.526954 75.4809 0.526954L75.7398 0.755469C75.8719 0.907813 75.9836 1.07031 76.075 1.24297C76.1766 1.40547 76.207 1.61875 76.1664 1.88281C76.1055 1.97422 76.0547 2.03008 76.0141 2.05039C75.9531 2.28398 75.8871 2.49219 75.816 2.675C75.7449 2.84766 75.6738 3.01523 75.6027 3.17773C75.5215 3.36055 75.4453 3.54336 75.3742 3.72617C75.3031 3.90898 75.2422 4.13242 75.1914 4.39648C75.1305 4.46758 75.0898 4.52852 75.0695 4.5793C75.0594 4.63008 75.0441 4.68086 75.0238 4.73164C75.0035 4.79258 74.9781 4.85859 74.9477 4.92969C74.9172 4.99063 74.8715 5.04648 74.8106 5.09727C74.7699 5.41211 74.709 5.67109 74.6277 5.87422C74.5465 6.06719 74.4652 6.26016 74.384 6.45313C74.2418 6.80859 74.1098 7.16406 73.9879 7.51953C73.866 7.86484 73.7949 8.26094 73.7746 8.70781C73.8965 8.67734 74.0082 8.66211 74.1098 8.66211C74.2418 8.66211 74.3688 8.68242 74.4906 8.72305C74.8563 8.54024 75.2523 8.42852 75.6789 8.38789C76.1156 8.34727 76.5473 8.32188 76.9738 8.31172C77.3293 8.31172 77.6594 8.29649 77.9641 8.26602C78.0656 8.33711 78.1316 8.37774 78.1621 8.38789C78.1926 8.38789 78.2434 8.38789 78.3145 8.38789C78.3449 8.38789 78.3754 8.38789 78.4059 8.38789C78.4363 8.38789 78.477 8.39297 78.5277 8.40313C78.6699 8.54531 78.807 8.64688 78.9391 8.70781C79.0711 8.75859 79.2133 8.80938 79.3656 8.86016C79.4977 8.91094 79.6246 8.9668 79.7465 9.02774C79.8785 9.07852 80.0055 9.14961 80.1273 9.24102L80.2645 10.018C80.3457 10.1297 80.3813 10.2059 80.3711 10.2465C80.3711 10.3277 80.3508 10.3988 80.3102 10.4598L80.3406 10.6578C80.1477 10.6984 80.0207 10.7441 79.9598 10.7949C79.8988 10.8355 79.8328 10.8914 79.7617 10.9625C79.65 10.9727 79.5434 10.9777 79.4418 10.9777C79.2387 10.9777 79.0305 11.0082 78.8172 11.0691C78.5125 10.9574 78.1773 10.9016 77.8117 10.9016C77.6695 10.9016 77.5223 10.9066 77.3699 10.9168C77.2277 10.927 77.0856 10.9422 76.9434 10.9625C76.791 10.9828 76.6387 11.0031 76.4863 11.0234C76.334 11.0336 76.1816 11.0387 76.0293 11.0387C75.9074 11.059 75.8211 11.0742 75.7703 11.0844C75.7195 11.0945 75.6688 11.1098 75.618 11.1301C75.2727 11.2418 74.8969 11.3535 74.4906 11.4652C74.0945 11.577 73.6934 11.6328 73.2871 11.6328C72.6879 11.6328 72.2055 11.4805 71.8398 11.1758C71.7992 11.0844 71.7688 11.0234 71.7484 10.993C71.7281 10.9625 71.7078 10.927 71.6875 10.8863ZM89.5727 6.87969C89.5625 7.00156 89.5727 7.11836 89.6031 7.23008C89.6336 7.3418 89.6691 7.45352 89.7098 7.56524C89.7605 7.6668 89.8063 7.77344 89.8469 7.88516C89.8875 7.99688 89.918 8.10859 89.9383 8.22031C89.9586 8.3625 89.9586 8.51992 89.9383 8.69258C89.918 8.85508 89.8824 9.01758 89.8316 9.18008C89.7809 9.33242 89.7148 9.47461 89.6336 9.60664C89.5523 9.72852 89.4559 9.81992 89.3441 9.88086C89.202 10.0637 89.0293 10.2059 88.8262 10.3074C88.623 10.409 88.4352 10.5309 88.2625 10.673C88.1508 10.7441 88.0238 10.7949 87.8816 10.8254C87.7496 10.8559 87.6125 10.8863 87.4703 10.9168C87.3586 10.9777 87.2266 11.0438 87.0742 11.1148C86.9219 11.1758 86.7645 11.2367 86.602 11.2977C86.4395 11.3484 86.277 11.3891 86.1145 11.4195C85.952 11.4398 85.8098 11.4449 85.6879 11.4348C85.3832 11.5465 85.0836 11.6176 84.7891 11.648C84.5047 11.6887 84.1695 11.6684 83.7836 11.5871C83.418 11.6379 83.0777 11.6227 82.7629 11.5414C82.4582 11.4602 82.184 11.3332 81.9402 11.1605C81.7066 10.9777 81.4984 10.7645 81.3156 10.5207C81.143 10.2668 81.0008 10.0027 80.8891 9.72852C80.8078 9.14961 80.8281 8.62656 80.95 8.15938C81.0719 7.68203 81.2445 7.24531 81.468 6.84922C81.7016 6.44297 81.9656 6.07227 82.2602 5.73711C82.5547 5.3918 82.8391 5.05664 83.1133 4.73164C83.1742 4.75195 83.2199 4.75195 83.2504 4.73164C83.291 4.70117 83.3266 4.66563 83.357 4.625C83.3875 4.57422 83.418 4.52852 83.4484 4.48789C83.4891 4.44727 83.5348 4.42188 83.5855 4.41172C83.6566 4.25938 83.7582 4.14766 83.8902 4.07656C84.0324 3.99531 84.1441 3.88359 84.2254 3.74141C84.3168 3.72109 84.393 3.69063 84.4539 3.65C84.5148 3.60938 84.5707 3.56367 84.6215 3.51289C84.6824 3.46211 84.7434 3.41641 84.8043 3.37578C84.8652 3.325 84.9363 3.28945 85.0176 3.26914V3.10156C85.2004 3.02031 85.3324 2.92891 85.4137 2.82734C85.5051 2.71563 85.6117 2.58359 85.7336 2.43125C85.825 2.42109 85.8961 2.41602 85.9469 2.41602C86.0078 2.41602 86.0941 2.40586 86.2059 2.38555C86.2871 2.24336 86.3582 2.13672 86.4191 2.06563C86.4902 1.99453 86.5918 1.91836 86.7238 1.83711C86.8457 1.89805 86.9777 1.93867 87.1199 1.95898C87.2723 1.9793 87.4043 2.04531 87.516 2.15703C87.5262 2.25859 87.5566 2.33984 87.6074 2.40078C87.6582 2.45156 87.7141 2.50234 87.775 2.55313C87.8359 2.59375 87.8918 2.63945 87.9426 2.69023C88.0035 2.74102 88.0441 2.81211 88.0645 2.90352C88.1051 2.91367 88.1305 2.90859 88.1406 2.88828C88.1609 2.86797 88.1914 2.86289 88.232 2.87305C88.2625 3.01523 88.298 3.11172 88.3387 3.1625C88.3793 3.20313 88.4199 3.28945 88.4605 3.42148C88.4098 3.52305 88.3691 3.62969 88.3387 3.74141C88.3184 3.84297 88.2574 3.91914 88.1559 3.96992C88.1457 4.04102 88.166 4.08164 88.2168 4.0918C88.2676 4.0918 88.298 4.11719 88.3082 4.16797C88.3184 4.25938 88.3031 4.32539 88.2625 4.36602C88.5063 4.76211 88.7246 5.18359 88.9176 5.63047C89.1105 6.06719 89.3289 6.48359 89.5727 6.87969ZM87.6684 8.32695C87.709 8.21524 87.7598 8.12383 87.8207 8.05274C87.8918 7.98164 87.9324 7.875 87.9426 7.73281C87.8918 7.65156 87.8613 7.59063 87.8512 7.55C87.841 7.49922 87.8359 7.42305 87.8359 7.32149C87.6125 7.00664 87.4195 6.67149 87.257 6.31602C87.0945 5.95039 86.9117 5.61016 86.7086 5.29531C86.6883 5.33594 86.6527 5.37656 86.602 5.41719C86.5512 5.45781 86.4953 5.44766 86.4344 5.38672C86.4141 5.46797 86.3785 5.52891 86.3277 5.56953C86.277 5.6 86.2211 5.61523 86.1602 5.61523C86.0992 5.60508 86.0332 5.58984 85.9621 5.56953C85.9012 5.53906 85.8453 5.50352 85.7945 5.46289C85.5 5.69648 85.2055 5.925 84.9109 6.14844C84.6164 6.37188 84.3523 6.63086 84.1188 6.92539C84.0781 6.9457 84.0527 6.95586 84.0426 6.95586C84.0324 6.9457 84.002 6.95078 83.9512 6.97109C83.8699 7.16406 83.7684 7.3418 83.6465 7.5043C83.5348 7.65664 83.423 7.81406 83.3113 7.97656C83.1996 8.13906 83.1031 8.31172 83.0219 8.49453C82.9406 8.67734 82.8949 8.89063 82.8848 9.13438C83.0574 9.27656 83.2605 9.36289 83.4941 9.39336C83.7277 9.42383 83.9664 9.42891 84.2102 9.40859C84.4641 9.38828 84.7078 9.35781 84.9414 9.31719C85.1852 9.26641 85.4086 9.24102 85.6117 9.24102C86.0383 9.13945 86.4039 9.00742 86.7086 8.84492C87.0133 8.67227 87.3332 8.49961 87.6684 8.32695ZM101.303 8.70781C101.059 9.14453 100.739 9.48477 100.343 9.72852C99.9473 9.96211 99.5105 10.1602 99.0332 10.3227C98.5559 10.475 98.0531 10.6121 97.525 10.734C97.007 10.8559 96.5043 11.0133 96.0168 11.2063C95.8746 11.2063 95.7477 11.2113 95.6359 11.2215C95.5344 11.2316 95.4328 11.2469 95.3313 11.2672C95.2398 11.2773 95.1484 11.2926 95.057 11.3129C94.9656 11.323 94.8641 11.3332 94.7523 11.3434C94.7117 11.3332 94.6863 11.3434 94.6762 11.3738C94.666 11.3941 94.6508 11.4145 94.6305 11.4348C94.4578 11.4652 94.3004 11.4805 94.1582 11.4805C94.0262 11.4805 93.9145 11.4805 93.823 11.4805C93.7012 11.4805 93.5742 11.4957 93.4422 11.5262C93.3203 11.5668 93.2086 11.582 93.107 11.5719C92.3453 11.5313 91.7461 11.2621 91.3094 10.7645C90.8828 10.2566 90.6441 9.55586 90.5934 8.66211C90.6035 8.61133 90.5934 8.58086 90.5629 8.5707C90.5426 8.56055 90.5223 8.54531 90.502 8.525C90.502 8.42344 90.5121 8.33711 90.5324 8.26602C90.5629 8.19492 90.568 8.10352 90.5477 7.9918C90.8117 7.4332 91.1113 6.91524 91.4465 6.43789C91.7816 5.95039 92.1828 5.52383 92.65 5.1582C92.7211 5.09727 92.782 5.03633 92.8328 4.97539C92.8836 4.91445 92.9293 4.85352 92.9699 4.79258C93.0207 4.73164 93.0766 4.68086 93.1375 4.64023C93.1984 4.58945 93.2746 4.55391 93.366 4.53359C93.5793 4.28984 93.8332 4.06641 94.1277 3.86328C94.4223 3.66016 94.732 3.46719 95.057 3.28438C95.382 3.09141 95.702 2.90352 96.0168 2.7207C96.3418 2.52773 96.6363 2.31445 96.9004 2.08086C97.0121 2.13164 97.0934 2.14688 97.1441 2.12656C97.1949 2.10625 97.2508 2.10625 97.3117 2.12656C97.3828 2.27891 97.4793 2.38555 97.6012 2.44648C97.7332 2.50742 97.8602 2.57344 97.982 2.64453C98.1141 2.70547 98.2359 2.78164 98.3477 2.87305C98.4594 2.96445 98.5457 3.08633 98.6066 3.23867C98.5457 3.23867 98.5152 3.26406 98.5152 3.31484C98.5254 3.35547 98.5406 3.40117 98.5609 3.45195C98.5813 3.49258 98.5863 3.53828 98.5762 3.58906C98.5762 3.62969 98.5406 3.65 98.4695 3.65C98.4797 3.70078 98.5102 3.73125 98.5609 3.74141C98.6219 3.74141 98.6523 3.7668 98.6523 3.81758C98.6523 3.86836 98.6371 3.90898 98.6066 3.93945C98.5863 3.96992 98.5863 4.0207 98.6066 4.0918C98.4035 4.22383 98.175 4.35078 97.9211 4.47266C97.6773 4.59453 97.4184 4.72656 97.1441 4.86875C96.8801 5.00078 96.6008 5.14805 96.3063 5.31055C96.0219 5.46289 95.7426 5.64063 95.4684 5.84375C95.1941 6.04688 94.9148 6.27539 94.6305 6.5293C94.3461 6.77305 94.0719 7.03203 93.8078 7.30625C93.5438 7.58047 93.2949 7.86484 93.0613 8.15938C92.8277 8.44375 92.6297 8.72813 92.4672 9.0125C92.4875 9.06328 92.5078 9.10391 92.5281 9.13438C92.5586 9.15469 92.584 9.19024 92.6043 9.24102C92.9293 9.26133 93.2289 9.26133 93.5031 9.24102C93.7875 9.21055 94.0719 9.22578 94.3563 9.28672C94.3867 9.26641 94.407 9.23594 94.4172 9.19531C94.4273 9.15469 94.4527 9.12422 94.4934 9.10391C95.0723 9.04297 95.6105 8.95156 96.1082 8.82969C96.6059 8.69766 97.1137 8.56055 97.6316 8.41836C97.5504 8.38789 97.4742 8.3625 97.4031 8.34219C97.3422 8.31172 97.2813 8.28633 97.2203 8.26602C97.1695 8.21524 97.1695 8.17461 97.2203 8.14414C97.2813 8.10352 97.332 8.06289 97.3727 8.02227C97.2305 7.94102 97.1137 7.83945 97.0223 7.71758C96.941 7.5957 96.8902 7.4332 96.8699 7.23008C96.9309 7.1793 96.9613 7.11836 96.9613 7.04727C96.9613 6.97617 96.9309 6.92031 96.8699 6.87969C96.8293 6.86953 96.8039 6.86953 96.7938 6.87969C96.7836 6.88984 96.7734 6.90508 96.7633 6.92539C96.7633 6.9457 96.7582 6.96602 96.748 6.98633C96.7379 6.99649 96.7125 6.99141 96.6719 6.97109C96.682 6.87969 96.7023 6.80352 96.7328 6.74258C96.7734 6.68164 96.8039 6.61055 96.8242 6.5293L97.8754 5.82852C97.9871 5.90977 98.1242 6.00117 98.2867 6.10274C98.4492 6.19414 98.6168 6.29063 98.7895 6.39219C98.9723 6.48359 99.1551 6.58008 99.3379 6.68164C99.5309 6.77305 99.7086 6.86445 99.8711 6.95586C100.013 7.0168 100.14 7.09805 100.252 7.19961C100.364 7.30117 100.47 7.40781 100.572 7.51953C100.673 7.62109 100.775 7.72266 100.877 7.82422C100.988 7.92578 101.115 8.01211 101.257 8.0832C101.237 8.21524 101.242 8.32188 101.273 8.40313C101.303 8.48438 101.313 8.58594 101.303 8.70781ZM109.56 6.87969C109.55 7.00156 109.56 7.11836 109.591 7.23008C109.621 7.3418 109.657 7.45352 109.697 7.56524C109.748 7.6668 109.794 7.77344 109.834 7.88516C109.875 7.99688 109.905 8.10859 109.926 8.22031C109.946 8.3625 109.946 8.51992 109.926 8.69258C109.905 8.85508 109.87 9.01758 109.819 9.18008C109.768 9.33242 109.702 9.47461 109.621 9.60664C109.54 9.72852 109.443 9.81992 109.332 9.88086C109.189 10.0637 109.017 10.2059 108.814 10.3074C108.611 10.409 108.423 10.5309 108.25 10.673C108.138 10.7441 108.011 10.7949 107.869 10.8254C107.737 10.8559 107.6 10.8863 107.458 10.9168C107.346 10.9777 107.214 11.0438 107.062 11.1148C106.909 11.1758 106.752 11.2367 106.589 11.2977C106.427 11.3484 106.264 11.3891 106.102 11.4195C105.939 11.4398 105.797 11.4449 105.675 11.4348C105.371 11.5465 105.071 11.6176 104.777 11.648C104.492 11.6887 104.157 11.6684 103.771 11.5871C103.405 11.6379 103.065 11.6227 102.75 11.5414C102.446 11.4602 102.171 11.3332 101.928 11.1605C101.694 10.9777 101.486 10.7645 101.303 10.5207C101.13 10.2668 100.988 10.0027 100.877 9.72852C100.795 9.14961 100.816 8.62656 100.938 8.15938C101.059 7.68203 101.232 7.24531 101.455 6.84922C101.689 6.44297 101.953 6.07227 102.248 5.73711C102.542 5.3918 102.827 5.05664 103.101 4.73164C103.162 4.75195 103.207 4.75195 103.238 4.73164C103.279 4.70117 103.314 4.66563 103.345 4.625C103.375 4.57422 103.405 4.52852 103.436 4.48789C103.477 4.44727 103.522 4.42188 103.573 4.41172C103.644 4.25938 103.746 4.14766 103.878 4.07656C104.02 3.99531 104.132 3.88359 104.213 3.74141C104.304 3.72109 104.38 3.69063 104.441 3.65C104.502 3.60938 104.558 3.56367 104.609 3.51289C104.67 3.46211 104.731 3.41641 104.792 3.37578C104.853 3.325 104.924 3.28945 105.005 3.26914V3.10156C105.188 3.02031 105.32 2.92891 105.401 2.82734C105.493 2.71563 105.599 2.58359 105.721 2.43125C105.813 2.42109 105.884 2.41602 105.934 2.41602C105.995 2.41602 106.082 2.40586 106.193 2.38555C106.275 2.24336 106.346 2.13672 106.407 2.06563C106.478 1.99453 106.579 1.91836 106.711 1.83711C106.833 1.89805 106.965 1.93867 107.107 1.95898C107.26 1.9793 107.392 2.04531 107.504 2.15703C107.514 2.25859 107.544 2.33984 107.595 2.40078C107.646 2.45156 107.702 2.50234 107.763 2.55313C107.823 2.59375 107.879 2.63945 107.93 2.69023C107.991 2.74102 108.032 2.81211 108.052 2.90352C108.093 2.91367 108.118 2.90859 108.128 2.88828C108.148 2.86797 108.179 2.86289 108.22 2.87305C108.25 3.01523 108.286 3.11172 108.326 3.1625C108.367 3.20313 108.407 3.28945 108.448 3.42148C108.397 3.52305 108.357 3.62969 108.326 3.74141C108.306 3.84297 108.245 3.91914 108.143 3.96992C108.133 4.04102 108.154 4.08164 108.204 4.0918C108.255 4.0918 108.286 4.11719 108.296 4.16797C108.306 4.25938 108.291 4.32539 108.25 4.36602C108.494 4.76211 108.712 5.18359 108.905 5.63047C109.098 6.06719 109.316 6.48359 109.56 6.87969ZM107.656 8.32695C107.696 8.21524 107.747 8.12383 107.808 8.05274C107.879 7.98164 107.92 7.875 107.93 7.73281C107.879 7.65156 107.849 7.59063 107.839 7.55C107.829 7.49922 107.823 7.42305 107.823 7.32149C107.6 7.00664 107.407 6.67149 107.245 6.31602C107.082 5.95039 106.899 5.61016 106.696 5.29531C106.676 5.33594 106.64 5.37656 106.589 5.41719C106.539 5.45781 106.483 5.44766 106.422 5.38672C106.402 5.46797 106.366 5.52891 106.315 5.56953C106.264 5.6 106.209 5.61523 106.148 5.61523C106.087 5.60508 106.021 5.58984 105.95 5.56953C105.889 5.53906 105.833 5.50352 105.782 5.46289C105.488 5.69648 105.193 5.925 104.898 6.14844C104.604 6.37188 104.34 6.63086 104.106 6.92539C104.066 6.9457 104.04 6.95586 104.03 6.95586C104.02 6.9457 103.989 6.95078 103.939 6.97109C103.857 7.16406 103.756 7.3418 103.634 7.5043C103.522 7.65664 103.411 7.81406 103.299 7.97656C103.187 8.13906 103.091 8.31172 103.009 8.49453C102.928 8.67734 102.882 8.89063 102.872 9.13438C103.045 9.27656 103.248 9.36289 103.482 9.39336C103.715 9.42383 103.954 9.42891 104.198 9.40859C104.452 9.38828 104.695 9.35781 104.929 9.31719C105.173 9.26641 105.396 9.24102 105.599 9.24102C106.026 9.13945 106.391 9.00742 106.696 8.84492C107.001 8.67227 107.321 8.49961 107.656 8.32695Z" fill="white"/>
</svg>
