<svg width="21" height="18" viewBox="0 0 21 18" fill="none" xmlns="http://www.w3.org/2000/svg">
<path d="M2.9974 5.57C2.99757 4.75714 3.20786 3.95812 3.60787 3.25049C4.00787 2.54285 4.58401 1.95064 5.28037 1.53131C5.97672 1.11198 6.76965 0.879777 7.5822 0.857237C8.39476 0.834696 9.19934 1.02258 9.91787 1.40266C10.6364 1.78274 11.2445 2.34211 11.6831 3.02648C12.1217 3.71085 12.376 4.49698 12.4212 5.30858C12.4665 6.12019 12.3011 6.92971 11.9413 7.65858C11.5814 8.38745 11.0392 9.01092 10.3674 9.46849C11.8142 9.99915 13.0691 10.9506 13.9706 12.2005C14.8721 13.4504 15.379 14.9415 15.4259 16.4818C15.4239 16.6479 15.3578 16.8068 15.2414 16.9253C15.1251 17.0438 14.9674 17.1127 14.8014 17.1177C14.6354 17.1227 14.4738 17.0633 14.3506 16.952C14.2273 16.8407 14.1518 16.6861 14.1398 16.5204C14.0888 14.8498 13.3892 13.2647 12.1895 12.101C10.9897 10.9373 9.38395 10.2865 7.71254 10.2865C6.04112 10.2865 4.43539 10.9373 3.2356 12.101C2.03582 13.2647 1.33628 14.8498 1.28522 16.5204C1.27664 16.6883 1.20264 16.8462 1.07908 16.9602C0.955512 17.0742 0.792214 17.1353 0.624165 17.1303C0.456115 17.1254 0.29668 17.0548 0.180017 16.9338C0.0633532 16.8127 -0.00126026 16.6508 1.86289e-05 16.4827C0.0467896 14.9422 0.553546 13.4509 1.45506 12.2009C2.35657 10.9508 3.61158 9.9992 5.05853 9.46849C4.42328 9.03584 3.90341 8.45449 3.54418 7.77502C3.18495 7.09556 2.99724 6.33859 2.9974 5.57ZM7.71296 2.1405C6.8034 2.1405 5.9311 2.50182 5.28794 3.14498C4.64479 3.78814 4.28346 4.66044 4.28346 5.57C4.28346 6.47956 4.64479 7.35187 5.28794 7.99503C5.9311 8.63818 6.8034 8.9995 7.71296 8.9995C8.62252 8.9995 9.49483 8.63818 10.138 7.99503C10.7811 7.35187 11.1425 6.47956 11.1425 5.57C11.1425 4.66044 10.7811 3.78814 10.138 3.14498C9.49483 2.50182 8.62252 2.1405 7.71296 2.1405ZM14.8206 5.57C14.6943 5.57 14.5703 5.57858 14.4485 5.59572C14.3635 5.61094 14.2763 5.60889 14.1921 5.58968C14.1079 5.57047 14.0285 5.5345 13.9585 5.48391C13.8885 5.43333 13.8294 5.36916 13.7848 5.29525C13.7401 5.22133 13.7108 5.13918 13.6986 5.0537C13.6864 4.96821 13.6915 4.88114 13.7137 4.79768C13.7359 4.71422 13.7746 4.63608 13.8276 4.56793C13.8806 4.49977 13.9469 4.44299 14.0223 4.40097C14.0977 4.35896 14.1809 4.33257 14.2667 4.32338C15.1195 4.20009 15.989 4.36385 16.7384 4.78887C17.4879 5.21389 18.0748 5.87606 18.4067 6.67115C18.7386 7.46625 18.7967 8.34914 18.5718 9.18087C18.347 10.0126 17.852 10.746 17.1647 11.2655C18.175 11.7179 19.0328 12.453 19.6347 13.3821C20.2365 14.3112 20.5566 15.3946 20.5564 16.5015C20.5564 16.6721 20.4887 16.8356 20.3681 16.9562C20.2475 17.0768 20.084 17.1446 19.9134 17.1446C19.7429 17.1446 19.5793 17.0768 19.4587 16.9562C19.3381 16.8356 19.2704 16.6721 19.2704 16.5015C19.2707 15.5447 18.9626 14.6133 18.3918 13.8454C17.821 13.0775 17.0178 12.5141 16.1015 12.2387L15.6437 12.1015V10.6645L15.9952 10.4853C16.5163 10.2214 16.9332 9.78953 17.1786 9.25949C17.4241 8.72946 17.4838 8.13217 17.348 7.56405C17.2122 6.99593 16.889 6.49015 16.4304 6.12835C15.9718 5.76655 15.4047 5.56985 14.8206 5.57Z" fill="white"/>
</svg>
