<svg width="16" height="16" viewBox="0 0 16 16" fill="none" xmlns="http://www.w3.org/2000/svg">
<path d="M15.5938 6.7207C15.5982 7.13903 15.5996 7.59625 15.5996 8.09863V9.67871C15.5996 11.1799 15.599 12.2654 15.4863 13.0928C15.3892 13.806 15.2144 14.2819 14.917 14.6416L14.7812 14.7891C14.3998 15.1661 13.8865 15.3773 13.0586 15.4873C12.2197 15.5987 11.1192 15.5996 9.59961 15.5996H6.40039C4.88081 15.5996 3.78034 15.5987 2.94141 15.4873C2.2168 15.391 1.7333 15.2175 1.36816 14.9229L1.21875 14.7891C0.837632 14.413 0.624706 13.9081 0.513672 13.0928C0.401014 12.2654 0.400391 11.1799 0.400391 9.67871V8.09863C0.400391 7.59625 0.401782 7.13903 0.40625 6.7207H15.5938ZM4 10.8594C3.68336 10.8594 3.37873 10.9835 3.15332 11.2061C2.92774 11.4289 2.7998 11.7325 2.7998 12.0498C2.79992 12.3669 2.92784 12.6699 3.15332 12.8926C3.37873 13.1152 3.68333 13.2393 4 13.2393C4.31667 13.2393 4.62127 13.1152 4.84668 12.8926C5.07216 12.6699 5.20008 12.3669 5.2002 12.0498C5.2002 11.7325 5.07226 11.4289 4.84668 11.2061C4.62127 10.9835 4.31664 10.8594 4 10.8594ZM8 10.8594C7.68336 10.8594 7.37873 10.9835 7.15332 11.2061C6.92774 11.4289 6.7998 11.7325 6.7998 12.0498C6.79992 12.3669 6.92784 12.6699 7.15332 12.8926C7.37873 13.1152 7.68333 13.2393 8 13.2393C8.31667 13.2393 8.62127 13.1152 8.84668 12.8926C9.07216 12.6699 9.20008 12.3669 9.2002 12.0498C9.2002 11.7325 9.07226 11.4289 8.84668 11.2061C8.62127 10.9835 8.31664 10.8594 8 10.8594ZM12 10.8594C11.6834 10.8594 11.3787 10.9835 11.1533 11.2061C10.9277 11.4289 10.7998 11.7326 10.7998 12.0498C10.7999 12.3669 10.9278 12.6699 11.1533 12.8926C11.3787 13.1152 11.6833 13.2393 12 13.2393C12.3167 13.2393 12.6213 13.1152 12.8467 12.8926C13.0722 12.6699 13.2001 12.3669 13.2002 12.0498C13.2002 11.7326 13.0723 11.4289 12.8467 11.2061C12.6213 10.9835 12.3166 10.8594 12 10.8594ZM4 7.69922C3.68333 7.69922 3.37873 7.82327 3.15332 8.0459C2.92786 8.26864 2.79986 8.57154 2.7998 8.88867C2.7998 9.20593 2.92774 9.50962 3.15332 9.73242C3.37872 9.95495 3.68341 10.0791 4 10.0791C4.31659 10.0791 4.62128 9.95495 4.84668 9.73242C5.07226 9.50962 5.2002 9.20593 5.2002 8.88867C5.20014 8.57154 5.07214 8.26864 4.84668 8.0459C4.62127 7.82327 4.31667 7.69922 4 7.69922ZM8 7.69922C7.68333 7.69922 7.37873 7.82327 7.15332 8.0459C6.92786 8.26864 6.79986 8.57154 6.7998 8.88867C6.7998 9.20593 6.92774 9.50962 7.15332 9.73242C7.37872 9.95495 7.68341 10.0791 8 10.0791C8.31659 10.0791 8.62128 9.95495 8.84668 9.73242C9.07226 9.50962 9.2002 9.20593 9.2002 8.88867C9.20014 8.57154 9.07214 8.26864 8.84668 8.0459C8.62127 7.82327 8.31667 7.69922 8 7.69922ZM12 7.69922C11.6833 7.69922 11.3787 7.82327 11.1533 8.0459C10.9279 8.26864 10.7999 8.57155 10.7998 8.88867C10.7998 9.20592 10.9277 9.50962 11.1533 9.73242C11.3787 9.95495 11.6834 10.0791 12 10.0791C12.3166 10.0791 12.6213 9.95495 12.8467 9.73242C13.0723 9.50962 13.2002 9.20593 13.2002 8.88867C13.2001 8.57154 13.0721 8.26864 12.8467 8.0459C12.6213 7.82327 12.3167 7.69922 12 7.69922ZM12 0.400391C12.0546 0.400391 12.1064 0.421332 12.1436 0.458008C12.1805 0.494514 12.2002 0.543319 12.2002 0.592773V2.20996L12.5684 2.23926C13.5521 2.31758 14.1625 2.4896 14.6025 2.83105L14.7812 2.98828C15.1705 3.3722 15.3828 3.88992 15.4922 4.73535H0.507812C0.601317 4.01292 0.770184 3.52991 1.06055 3.16504L1.21875 2.98828C1.67087 2.5411 2.30676 2.32896 3.43164 2.24023L3.7998 2.21094V0.592773C3.7998 0.543309 3.82045 0.49452 3.85742 0.458008C3.8945 0.421547 3.94557 0.400433 4 0.400391C4.05464 0.400391 4.10642 0.42133 4.14355 0.458008C4.1805 0.494516 4.2002 0.543322 4.2002 0.592773V2.19629L4.60742 2.1875C5.13478 2.17732 5.72811 2.17773 6.40039 2.17773H9.60059C10.2727 2.17773 10.8653 2.17732 11.3926 2.1875L11.7998 2.19629V0.592773C11.7998 0.543309 11.8205 0.49452 11.8574 0.458008C11.8945 0.421547 11.9456 0.400433 12 0.400391Z" stroke="white" stroke-width="0.8"/>
</svg>
