<svg width="16" height="20" viewBox="0 0 16 20" fill="none" xmlns="http://www.w3.org/2000/svg">
<path d="M8 1.14195C9.04305 1.14195 10.0076 1.33622 10.8994 1.72007C11.8011 2.1082 12.5891 2.6416 13.2676 3.32066C13.9461 3.99982 14.479 4.78779 14.8672 5.68882C15.251 6.57988 15.4457 7.54453 15.4463 8.58824L15.4375 9.00425C15.3977 9.96925 15.2194 10.8976 14.9023 11.7914C14.5358 12.8246 14.0342 13.7818 13.3975 14.6644C12.7589 15.5496 12.0004 16.3547 11.1191 17.0785C10.4446 17.6325 9.72192 18.1184 8.95312 18.5404L8.78711 16.5423L8.74512 16.0345H8C5.91704 16.0345 4.16817 15.315 2.7207 13.8675C1.27324 12.4201 0.553711 10.6712 0.553711 8.58824C0.553711 6.50527 1.27324 4.75641 2.7207 3.30894C4.07768 1.95196 5.69959 1.23513 7.61328 1.15074L8 1.14195ZM8 3.79917C7.20041 3.79917 6.49098 4.025 5.9082 4.50132C5.36195 4.94785 4.97039 5.49915 4.74707 6.14976L4.5752 6.65074L5.06836 6.84507L6.38574 7.36265L6.94824 7.58335L7.11914 7.00327C7.17146 6.8254 7.27677 6.62953 7.45703 6.41734C7.54629 6.31234 7.69602 6.22443 8.00098 6.22398C8.32246 6.22353 8.46721 6.3107 8.54199 6.3939C8.67463 6.54156 8.71708 6.67211 8.7168 6.79917V6.80015C8.71677 6.94961 8.67537 7.07319 8.58984 7.18882C8.45349 7.37315 8.28632 7.56562 8.08594 7.76597C7.81119 8.00273 7.57935 8.22354 7.39648 8.42808C7.21294 8.63341 7.05487 8.84804 6.96191 9.06577C6.79598 9.45466 6.74087 10.0473 6.74023 10.7523V11.307H7.5918C7.33379 11.3727 7.10026 11.5046 6.90234 11.7025C6.61013 11.9947 6.45801 12.3635 6.45801 12.7767C6.45807 13.1897 6.61035 13.5578 6.90234 13.85C7.19461 14.1422 7.56335 14.2953 7.97656 14.2953C8.38974 14.2952 8.75854 14.1422 9.05078 13.85C9.34272 13.5578 9.49506 13.1896 9.49512 12.7767C9.49512 12.3636 9.34294 11.9947 9.05078 11.7025C8.85291 11.5046 8.61926 11.3727 8.36133 11.307H9.25977V10.7533C9.25977 10.2875 9.31077 10.0741 9.3418 10.0121C9.35582 9.98402 9.4151 9.89532 9.56055 9.72691C9.69733 9.56852 9.88676 9.36652 10.1328 9.12046C10.448 8.80522 10.7139 8.46049 10.9277 8.08628C11.1633 7.67403 11.2831 7.22671 11.2832 6.75327C11.2832 5.81525 10.9566 5.03235 10.2471 4.50718C9.68236 4.08934 9.03183 3.86023 8.3125 3.80992L8 3.79917Z" stroke="white" stroke-width="1.10727"/>
</svg>
