<svg width="16" height="14" viewBox="0 0 16 14" fill="none" xmlns="http://www.w3.org/2000/svg">
<path d="M2.66699 0.150391H13.333C13.998 0.150391 14.6378 0.427604 15.1104 0.923828C15.583 1.42024 15.8496 2.09483 15.8496 2.7998V11.2002C15.8496 11.9052 15.583 12.5798 15.1104 13.0762C14.6378 13.5724 13.998 13.8496 13.333 13.8496H2.66699C2.00196 13.8496 1.36224 13.5724 0.889648 13.0762C0.416954 12.5798 0.15044 11.9052 0.150391 11.2002V2.7998C0.15044 2.09483 0.416954 1.42024 0.889648 0.923828C1.36224 0.427604 2.00196 0.150391 2.66699 0.150391ZM14.5928 5.2959L8.24219 8.88574C8.16735 8.92801 8.08407 8.94922 8 8.94922C7.91593 8.94922 7.83265 8.92801 7.75781 8.88574L1.40723 5.2959L1.18359 5.16895V11.2002C1.18364 11.6088 1.3381 12.0019 1.61523 12.293C1.89279 12.5844 2.27116 12.75 2.66699 12.75H13.333C13.7288 12.75 14.1072 12.5844 14.3848 12.293C14.6619 12.0019 14.8164 11.6088 14.8164 11.2002V5.16895L14.5928 5.2959ZM2.66699 1.25C2.27116 1.25 1.89279 1.4156 1.61523 1.70703C1.3381 1.99814 1.18364 2.39119 1.18359 2.7998V3.92383L1.25977 3.9668L7.92578 7.73535L8 7.77734L8.07422 7.73535L14.7402 3.9668L14.8164 3.92383V2.7998C14.8164 2.39119 14.6619 1.99814 14.3848 1.70703C14.1072 1.4156 13.7288 1.25 13.333 1.25H2.66699Z" fill="white" stroke="white" stroke-width="0.3"/>
</svg>
