<svg width="20" height="20" viewBox="0 0 20 20" fill="none" xmlns="http://www.w3.org/2000/svg">
<path d="M12.705 0.40036L19.36 3.72786V11.1486L18.15 10.5436V5.07966L13.31 7.49966V9.93856L12.1 10.5436V7.49966L7.26 5.07966V7.22552L6.05 6.62052V3.72786L12.705 0.40036ZM12.705 6.45036L14.3782 5.60903L10.0014 3.10395L8.0068 4.10599L12.705 6.45036ZM15.6827 4.96622L17.4032 4.10599L12.705 1.75216L11.2965 2.46114L15.6827 4.96622ZM10.89 11.1486L9.68 11.7536V11.7441L6.05 13.5591V17.8603L9.68 16.0358V17.3971L5.445 19.5146L0 16.7826V10.3923L5.445 7.66981L10.89 10.3923V11.1486ZM4.84 17.8603V13.5591L1.21 11.7441V16.0358L4.84 17.8603ZM5.445 12.5098L8.9332 10.7704L5.445 9.02161L1.9568 10.7704L5.445 12.5098ZM10.89 12.5004L15.125 10.3829L19.36 12.5004V17.4822L15.125 19.5997L10.89 17.4822V12.5004ZM14.52 17.9454V15.0622L12.1 13.8522V16.7354L14.52 17.9454ZM18.15 16.7354V13.8522L15.73 15.0622V17.9454L18.15 16.7354ZM15.125 14.0129L17.4032 12.869L15.125 11.7347L12.8468 12.869L15.125 14.0129Z" fill="white"/>
</svg>
