<svg width="21" height="18" viewBox="0 0 21 18" fill="none" xmlns="http://www.w3.org/2000/svg">
<path d="M3.92857 4.67857C3.92857 4.36903 3.98954 4.06251 4.108 3.77653C4.22645 3.49055 4.40008 3.2307 4.61896 3.01182C4.83784 2.79294 5.09769 2.61931 5.38367 2.50086C5.66966 2.3824 5.97617 2.32143 6.28571 2.32143C6.59526 2.32143 6.90177 2.3824 7.18775 2.50086C7.47373 2.61931 7.73358 2.79294 7.95247 3.01182C8.17135 3.2307 8.34497 3.49055 8.46343 3.77653C8.58189 4.06251 8.64286 4.36903 8.64286 4.67857C8.64286 5.30372 8.39452 5.90327 7.95247 6.34532C7.51042 6.78737 6.91087 7.03571 6.28571 7.03571C5.66056 7.03571 5.06101 6.78737 4.61896 6.34532C4.17691 5.90327 3.92857 5.30372 3.92857 4.67857ZM6.28571 0.75C5.24379 0.75 4.24454 1.1639 3.50779 1.90065C2.77104 2.6374 2.35714 3.63665 2.35714 4.67857C2.35714 5.72049 2.77104 6.71974 3.50779 7.45649C4.24454 8.19324 5.24379 8.60714 6.28571 8.60714C7.32763 8.60714 8.32688 8.19324 9.06363 7.45649C9.80038 6.71974 10.2143 5.72049 10.2143 4.67857C10.2143 3.63665 9.80038 2.6374 9.06363 1.90065C8.32688 1.1639 7.32763 0.75 6.28571 0.75ZM14.1429 5.46429C14.1429 5.04752 14.3084 4.64782 14.6031 4.35312C14.8978 4.05842 15.2975 3.89286 15.7143 3.89286C16.1311 3.89286 16.5308 4.05842 16.8255 4.35312C17.1201 4.64782 17.2857 5.04752 17.2857 5.46429C17.2857 5.88105 17.1201 6.28075 16.8255 6.57545C16.5308 6.87015 16.1311 7.03571 15.7143 7.03571C15.2975 7.03571 14.8978 6.87015 14.6031 6.57545C14.3084 6.28075 14.1429 5.88105 14.1429 5.46429ZM15.7143 2.32143C14.8807 2.32143 14.0813 2.65255 13.4919 3.24195C12.9025 3.83135 12.5714 4.63075 12.5714 5.46429C12.5714 6.29782 12.9025 7.09722 13.4919 7.68662C14.0813 8.27602 14.8807 8.60714 15.7143 8.60714C16.5478 8.60714 17.3472 8.27602 17.9366 7.68662C18.526 7.09722 18.8571 6.29782 18.8571 5.46429C18.8571 4.63075 18.526 3.83135 17.9366 3.24195C17.3472 2.65255 16.5478 2.32143 15.7143 2.32143ZM0 12.5357C0 11.9106 0.248341 11.311 0.690391 10.869C1.13244 10.4269 1.73199 10.1786 2.35714 10.1786H10.2143C10.8394 10.1786 11.439 10.4269 11.881 10.869C12.3231 11.311 12.5714 11.9106 12.5714 12.5357V12.7117C12.5711 12.7838 12.5659 12.8557 12.5557 12.927C12.4664 13.6889 12.1828 14.415 11.7323 15.0359C10.8727 16.2223 9.23843 17.25 6.28571 17.25C3.333 17.25 1.70029 16.2223 0.837571 15.0359C0.387582 14.4149 0.104592 13.6887 0.0157143 12.927C0.00801261 12.8554 0.00277144 12.7836 0 12.7117V12.5357ZM1.57143 12.6771V12.6881L1.57771 12.7651C1.63837 13.2517 1.82108 13.7149 2.10886 14.1119C2.62114 14.8159 3.73686 15.6786 6.28571 15.6786C8.83457 15.6786 9.95028 14.8159 10.4626 14.1119C10.7503 13.7149 10.9331 13.2517 10.9937 12.7651L11 12.6866V12.5357C11 12.3273 10.9172 12.1275 10.7699 11.9801C10.6225 11.8328 10.4227 11.75 10.2143 11.75H2.35714C2.14876 11.75 1.94891 11.8328 1.80156 11.9801C1.65421 12.1275 1.57143 12.3273 1.57143 12.5357V12.6771ZM15.7143 15.6786C14.7903 15.6786 14.0329 15.5371 13.42 15.3046C13.6696 14.842 13.8602 14.35 13.9873 13.84C14.4084 13.9987 14.9679 14.1071 15.7143 14.1071C17.4727 14.1071 18.194 13.5069 18.5114 13.0606C18.6984 12.801 18.8163 12.4982 18.854 12.1806L18.8571 12.1366C18.8555 12.0335 18.8134 11.9352 18.7399 11.8628C18.6664 11.7905 18.5674 11.75 18.4643 11.75H14.0643C13.9478 11.1803 13.7062 10.6436 13.3571 10.1786H18.4643C19.5486 10.1786 20.4286 11.0586 20.4286 12.1429V12.1696C20.4275 12.2269 20.4233 12.284 20.416 12.3409C20.3511 12.9302 20.1357 13.493 19.7906 13.9751C19.1274 14.9039 17.8844 15.6786 15.7143 15.6786Z" fill="white"/>
</svg>
