<svg width="17" height="18" viewBox="0 0 17 18" fill="none" xmlns="http://www.w3.org/2000/svg">
<path d="M8.5 0.700195C10.7006 0.702574 12.8102 1.57775 14.3662 3.13379C15.9222 4.68983 16.7974 6.79944 16.7998 9L16.7939 9.30762C16.7371 10.8414 16.2563 12.3318 15.4014 13.6113C14.4895 14.9761 13.1932 16.0397 11.6768 16.668C10.1602 17.2962 8.49086 17.4608 6.88086 17.1406C5.27082 16.8204 3.79164 16.0299 2.63086 14.8691C1.47008 13.7084 0.679632 12.2292 0.359375 10.6191C0.039151 9.00914 0.20384 7.33983 0.832031 5.82324C1.46026 4.30683 2.52389 3.01055 3.88867 2.09863C5.1682 1.24368 6.65858 0.762929 8.19238 0.706055L8.5 0.700195ZM6.15234 12.3252C6.59889 13.8503 7.34862 15.2301 8.35254 16.3193L8.5 16.4785L8.64746 16.3193C9.65138 15.2301 10.4011 13.8503 10.8477 12.3252L10.9219 12.0693H6.07812L6.15234 12.3252ZM1.91699 12.3604C2.38977 13.2818 3.04998 14.0942 3.85547 14.7451C4.66107 15.3961 5.59448 15.8718 6.59473 16.1406L7.11426 16.2803L6.81152 15.835C6.0628 14.734 5.51251 13.5102 5.18457 12.2197L5.14648 12.0693H1.76758L1.91699 12.3604ZM11.8154 12.2197C11.4875 13.5102 10.9372 14.734 10.1885 15.835L9.88574 16.2803L10.4053 16.1406C11.4055 15.8718 12.3389 15.3961 13.1445 14.7451C13.95 14.0942 14.6102 13.2818 15.083 12.3604L15.2324 12.0693H11.8535L11.8154 12.2197ZM1.3877 6.9834C1.20152 7.63925 1.10685 8.31823 1.10742 9L1.1123 9.25488C1.13245 9.85065 1.22474 10.4425 1.3877 11.0166L1.42871 11.1611H4.95508L4.9209 10.9316C4.72883 9.65105 4.72883 8.34895 4.9209 7.06836L4.95508 6.83887H1.42871L1.3877 6.9834ZM5.85059 7.00586C5.63017 8.32613 5.63017 9.67387 5.85059 10.9941L5.87891 11.1611H11.1211L11.1494 10.9941C11.3698 9.67387 11.3698 8.32613 11.1494 7.00586L11.1211 6.83887H5.87891L5.85059 7.00586ZM12.0791 7.06836C12.2712 8.34895 12.2712 9.65105 12.0791 10.9316L12.0449 11.1611H15.5713L15.6123 11.0156C15.9852 9.69767 15.9852 8.30233 15.6123 6.98438L15.5713 6.83887H12.0449L12.0791 7.06836ZM6.59473 1.85938C5.59448 2.12817 4.66107 2.60392 3.85547 3.25488C3.04998 3.90581 2.38977 4.71824 1.91699 5.63965L1.76758 5.93066H5.14648L5.18457 5.78027C5.51251 4.48984 6.0628 3.26602 6.81152 2.16504L7.11426 1.71973L6.59473 1.85938ZM8.35254 1.68066C7.34862 2.76991 6.59889 4.14972 6.15234 5.6748L6.07812 5.93066H10.9219L10.8477 5.6748C10.4011 4.14972 9.65138 2.76991 8.64746 1.68066L8.5 1.52148L8.35254 1.68066ZM10.1885 2.16504C10.9372 3.26602 11.4875 4.48984 11.8154 5.78027L11.8535 5.93066H15.2324L15.083 5.63965C14.6102 4.71824 13.95 3.90581 13.1445 3.25488C12.3389 2.60392 11.4055 2.12817 10.4053 1.85938L9.88574 1.71973L10.1885 2.16504Z" fill="white" stroke="white" stroke-width="0.4"/>
</svg>
