<svg width="16" height="17" viewBox="0 0 16 17" fill="none" xmlns="http://www.w3.org/2000/svg">
<path d="M9.67773 15.7109C9.5563 15.8571 9.41673 15.9886 9.25977 16.0996C8.93678 16.3279 8.55828 16.463 8.16602 16.4932L7.99805 16.5H7.99707C7.54522 16.5002 7.10436 16.3604 6.73535 16.0996C6.57837 15.9887 6.43884 15.8571 6.31738 15.7109H9.67773ZM7.99707 0.5C9.52555 0.5 10.9915 1.10767 12.0723 2.18848C13.1529 3.26916 13.7606 4.73444 13.7607 6.2627V9.41992L13.7705 9.58203C13.7831 9.68906 13.8079 9.79423 13.8447 9.89551L13.9082 10.0439L15.4434 13.1152C15.4802 13.189 15.4978 13.2711 15.4941 13.3535C15.4904 13.4359 15.4652 13.5158 15.4219 13.5859C15.3785 13.6561 15.3182 13.7147 15.2461 13.7549C15.1742 13.7949 15.0931 13.8154 15.0107 13.8154H0.984375C0.901827 13.8154 0.820146 13.7951 0.748047 13.7549C0.676017 13.7147 0.615634 13.6561 0.572266 13.5859C0.528974 13.5158 0.504714 13.4358 0.500977 13.3535C0.497273 13.2712 0.513972 13.189 0.550781 13.1152L2.08691 10.043H2.08789C2.16023 9.89783 2.20605 9.74133 2.22461 9.58105L2.23438 9.41895V6.2627C2.2345 4.73455 2.84142 3.26913 3.92188 2.18848C5.00262 1.10773 6.46867 0.500062 7.99707 0.5Z" stroke="white"/>
</svg>
