<svg width="18" height="16" viewBox="0 0 18 16" fill="none" xmlns="http://www.w3.org/2000/svg">
<path d="M1.758 15.596V4.69599L0 0.829992L0.916 0.403992L2.842 4.64599H14.674L16.6 0.403992L17.516 0.830992L15.758 4.69599V15.596H1.758ZM6.758 9.09599H10.758C10.9 9.09599 11.0187 9.04799 11.114 8.95199C11.2093 8.85599 11.2573 8.73699 11.258 8.59499C11.2587 8.45299 11.2107 8.33432 11.114 8.23899C11.0173 8.14366 10.8987 8.09599 10.758 8.09599H6.758C6.616 8.09599 6.49733 8.14399 6.402 8.23999C6.30667 8.33599 6.25867 8.45499 6.258 8.59699C6.25733 8.73899 6.30533 8.85766 6.402 8.95299C6.49867 9.04832 6.61733 9.09599 6.758 9.09599ZM2.758 14.596H14.758V5.64599H2.758V14.596Z" fill="white"/>
</svg>
