<svg width="17" height="18" viewBox="0 0 17 18" fill="none" xmlns="http://www.w3.org/2000/svg">
<path d="M9.00983 0.5L8.78251 0.703349L0.498206 9.07916L0 9.57882L0.498932 10.1017L7.39828 17.0011L7.92118 17.5L8.42229 17.0011L16.7959 8.71676L16.9985 8.48872V0.5H9.00983ZM9.62278 1.95249H15.5461V7.87577L7.92046 15.4563L2.04221 9.57809L9.62278 1.95249ZM13.3673 3.40499C13.1747 3.40499 12.99 3.4815 12.8538 3.6177C12.7176 3.7539 12.6411 3.93862 12.6411 4.13124C12.6411 4.32385 12.7176 4.50857 12.8538 4.64477C12.99 4.78097 13.1747 4.85748 13.3673 4.85748C13.5599 4.85748 13.7446 4.78097 13.8808 4.64477C14.017 4.50857 14.0936 4.32385 14.0936 4.13124C14.0936 3.93862 14.017 3.7539 13.8808 3.6177C13.7446 3.4815 13.5599 3.40499 13.3673 3.40499Z" fill="white"/>
</svg>
