<svg width="32" height="33" viewBox="0 0 32 33" fill="none" xmlns="http://www.w3.org/2000/svg">
<rect y="0.454834" width="32" height="32" rx="16" fill="url(#paint0_linear_1_3170)"/>
<path d="M13 12.4548C12.9999 12.8528 12.8417 13.2344 12.5602 13.5157C12.2787 13.797 11.897 13.955 11.499 13.9548C11.101 13.9547 10.7194 13.7965 10.4381 13.515C10.1568 13.2335 9.99887 12.8518 9.999 12.4538C9.99913 12.0559 10.1573 11.6743 10.4388 11.393C10.5782 11.2537 10.7437 11.1432 10.9257 11.0679C11.1078 10.9925 11.303 10.9538 11.5 10.9538C11.697 10.9539 11.8922 10.9928 12.0742 11.0682C12.2562 11.1437 12.4216 11.2543 12.5609 11.3937C12.7002 11.5331 12.8106 11.6985 12.886 11.8806C12.9613 12.0627 13.0001 12.2578 13 12.4548Z" fill="white"/>
<path d="M11.5 8.95483C9.6 8.95483 8 10.5548 8 12.4548C8 14.3548 9.6 15.9548 11.5 15.9548C13.4 15.9548 15 14.3548 15 12.4548C15 10.5548 13.4 8.95483 11.5 8.95483ZM11.5 14.9548C10.1 14.9548 9 13.8548 9 12.4548C9 11.0548 10.1 9.95483 11.5 9.95483C12.9 9.95483 14 11.0548 14 12.4548C14 13.8548 12.9 14.9548 11.5 14.9548ZM11.5 16.9548C9.6 16.9548 8 18.5548 8 20.4548C8 22.3548 9.6 23.9548 11.5 23.9548C13.4 23.9548 15 22.3548 15 20.4548C15 18.5548 13.4 16.9548 11.5 16.9548ZM11.5 22.9548C10.1 22.9548 9 21.8548 9 20.4548C9 19.0548 10.1 17.9548 11.5 17.9548C12.9 17.9548 14 19.0548 14 20.4548C14 21.8548 12.9 22.9548 11.5 22.9548ZM16 10.9548H24V13.9548H16V10.9548ZM16 18.9548H24V21.9548H16V18.9548Z" fill="white"/>
<defs>
<linearGradient id="paint0_linear_1_3170" x1="16" y1="0.454834" x2="16" y2="32.4548" gradientUnits="userSpaceOnUse">
<stop stop-color="#C346DD"/>
<stop offset="1" stop-color="#6C42FC"/>
</linearGradient>
</defs>
</svg>
