<svg width="32" height="33" viewBox="0 0 32 33" fill="none" xmlns="http://www.w3.org/2000/svg">
<rect y="0.654785" width="32" height="32" rx="16" fill="url(#paint0_linear_4037_1636)"/>
<path d="M14.35 20.8271V15.6623L8.85 12.9123V20.4748L13.525 22.8209L13.2586 23.9123L7.75 21.1623V11.6748L14.9 8.1084L22.05 11.6748V13.9951C21.649 14.0581 21.2823 14.187 20.95 14.3818V12.9123L15.45 15.6623V19.7271L14.35 20.8271ZM13.1297 10.2139L18.1484 13.0842L20.2711 12.0186L14.9 9.32871L13.1297 10.2139ZM14.9 14.7084L16.9625 13.6771L11.9437 10.8068L9.52891 12.0186L14.9 14.7084ZM22.5312 15.3186C22.7719 15.3186 22.9953 15.3615 23.2016 15.4475C23.4078 15.5334 23.5911 15.6508 23.7516 15.7998C23.912 15.9488 24.0323 16.1292 24.1125 16.3412C24.1927 16.5532 24.2385 16.7795 24.25 17.0201C24.25 17.2436 24.207 17.4613 24.1211 17.6732C24.0352 17.8852 23.912 18.0714 23.7516 18.2318L17.5898 24.3936L14.35 25.2014L15.1578 21.9615L21.3195 15.8084C21.4857 15.6423 21.6719 15.5191 21.8781 15.4389C22.0844 15.3587 22.3021 15.3186 22.5312 15.3186ZM22.9695 17.4584C23.0898 17.3381 23.15 17.192 23.15 17.0201C23.15 16.8425 23.0927 16.6993 22.9781 16.5904C22.8635 16.4816 22.7146 16.4243 22.5312 16.4186C22.451 16.4186 22.3737 16.43 22.2992 16.4529C22.2247 16.4758 22.1589 16.5188 22.1016 16.5818L16.1547 22.5287L15.8625 23.6889L17.0227 23.3967L22.9695 17.4584Z" fill="white"/>
<defs>
<linearGradient id="paint0_linear_4037_1636" x1="16" y1="0.654785" x2="16" y2="32.6548" gradientUnits="userSpaceOnUse">
<stop stop-color="#C346DD"/>
<stop offset="1" stop-color="#6C42FC"/>
</linearGradient>
</defs>
</svg>
