<svg width="32" height="33" viewBox="0 0 32 33" fill="none" xmlns="http://www.w3.org/2000/svg">
<rect y="0.654785" width="32" height="32" rx="16" fill="url(#paint0_linear_4037_1290)"/>
<path d="M16 23.9752H9.345C9.1685 23.9752 8.99922 23.9051 8.87442 23.7803C8.74961 23.6555 8.6795 23.4862 8.6795 23.3097V16.6547C8.6795 16.4782 8.74961 16.309 8.87442 16.1841C8.99922 16.0593 9.1685 15.9892 9.345 15.9892H16M16 23.9752V15.9892M16 23.9752H22.655C22.8315 23.9752 23.0008 23.9051 23.1256 23.7803C23.2504 23.6555 23.3205 23.4862 23.3205 23.3097V16.6547C23.3205 16.4782 23.2504 16.309 23.1256 16.1841C23.0008 16.0593 22.8315 15.9892 22.655 15.9892H16M19.3275 16.6547V19.3167M16.6655 9.99973V12.6617M12.6725 16.6547V19.3167M11.3415 9.99973V15.9892H20.6585V9.99973C20.6585 9.82323 20.5884 9.65395 20.4636 9.52915C20.3388 9.40434 20.1695 9.33423 19.993 9.33423H12.007C11.8305 9.33423 11.6612 9.40434 11.5364 9.52915C11.4116 9.65395 11.3415 9.82323 11.3415 9.99973Z" stroke="white" stroke-width="1.331"/>
<defs>
<linearGradient id="paint0_linear_4037_1290" x1="16" y1="0.654785" x2="16" y2="32.6548" gradientUnits="userSpaceOnUse">
<stop stop-color="#C346DD"/>
<stop offset="1" stop-color="#6C42FC"/>
</linearGradient>
</defs>
</svg>
