<svg width="16" height="16" viewBox="0 0 16 16" fill="none" xmlns="http://www.w3.org/2000/svg">
<path d="M3.95996 0.5C4.27698 0.5 4.40584 0.499788 4.52637 0.510742V0.511719C4.99938 0.55601 5.45134 0.723591 5.83691 0.99707L5.99805 1.12109C6.09133 1.19896 6.18178 1.2892 6.40625 1.51367L6.84668 1.95312V1.9541C7.47876 2.58541 7.86126 2.97468 8.32715 3.2334V3.23242C8.57503 3.37052 8.83753 3.48059 9.11035 3.55859H9.11133C9.62434 3.70447 10.1683 3.7002 11.0625 3.7002H11.3613C12.4272 3.7002 13.1802 3.70136 13.7539 3.77344C14.2453 3.83517 14.5516 3.94312 14.7783 4.11133L14.8701 4.18652C14.9197 4.23132 14.9671 4.27929 15.0117 4.3291L15.0127 4.33008C15.2247 4.56559 15.3562 4.88532 15.4268 5.44629C15.4989 6.01991 15.5 6.77305 15.5 7.83887V9.59961C15.5 11.1221 15.4994 12.2146 15.3877 13.0449C15.2917 13.7588 15.1197 14.2217 14.8369 14.5674L14.709 14.709C14.349 15.0692 13.8607 15.2779 13.0449 15.3877C12.2146 15.4994 11.1221 15.5 9.59961 15.5H6.40039C4.87785 15.5 3.7854 15.4994 2.95508 15.3877C2.24121 15.2917 1.77835 15.1197 1.43262 14.8369L1.29102 14.709C0.930768 14.349 0.722058 13.8607 0.612305 13.0449C0.500629 12.2146 0.5 11.1221 0.5 9.59961V3.95996C0.5 3.23191 0.501977 2.93656 0.546875 2.7002V2.69922C0.647794 2.1658 0.907416 1.67458 1.29102 1.29102C1.67488 0.907268 2.16586 0.647601 2.69922 0.546875H2.7002C2.93656 0.501976 3.23113 0.5 3.95996 0.5ZM8.7998 5.2998C8.50823 5.29986 8.22869 5.41595 8.02246 5.62207C7.81617 5.82836 7.7002 6.10865 7.7002 6.40039C7.7003 6.69199 7.81626 6.97154 8.02246 7.17773C8.22869 7.38392 8.50818 7.49995 8.7998 7.5H12.7998C13.0915 7.5 13.3718 7.38402 13.5781 7.17773C13.7842 6.97155 13.9003 6.69189 13.9004 6.40039C13.9004 6.1087 13.7844 5.82835 13.5781 5.62207C13.3718 5.41578 13.0915 5.2998 12.7998 5.2998H8.7998ZM11.4268 1.2998C11.7294 1.29981 11.8374 1.30021 11.9199 1.31055V1.31152C12.2592 1.3582 12.5632 1.53398 12.7822 1.79395C12.3377 1.76833 11.8305 1.76758 11.2705 1.76758H11.0029C10.2192 1.76758 10.0195 1.75916 9.8457 1.70801C9.73201 1.67429 9.62223 1.62669 9.51953 1.56738H9.51855C9.42907 1.51599 9.34405 1.44841 9.18945 1.2998H11.4268Z" stroke="white"/>
</svg>
