<svg width="18" height="13" viewBox="0 0 18 13" fill="none" xmlns="http://www.w3.org/2000/svg">
<path d="M10.35 7.10444C9.84242 7.10444 9.41552 6.93134 9.06932 6.58514C8.72312 6.23894 8.55002 5.81204 8.55002 5.30444C8.55002 4.79684 8.72312 4.36994 9.06932 4.02374C9.41552 3.67754 9.84242 3.50444 10.35 3.50444C10.8576 3.50444 11.2845 3.67754 11.6307 4.02374C11.9769 4.36994 12.15 4.79684 12.15 5.30444C12.15 5.81204 11.9769 6.23894 11.6307 6.58514C11.2845 6.93134 10.8576 7.10444 10.35 7.10444ZM3.32282 9.97814V0.630737H17.3772V9.97724L3.32282 9.97814ZM5.67722 9.07814H15.0228C15.0228 8.67494 15.1653 8.33174 15.4503 8.04854C15.7347 7.76534 16.0767 7.62374 16.4763 7.62374V2.98514C16.0743 2.98514 15.7317 2.84294 15.4485 2.55854C15.1647 2.27354 15.0228 1.93124 15.0228 1.53164H5.67722C5.67722 1.93424 5.53472 2.27714 5.24972 2.56034C4.96532 2.84354 4.62332 2.98514 4.22372 2.98514V7.62374C4.62572 7.62374 4.96862 7.76624 5.25242 8.05124C5.53562 8.33564 5.67722 8.67854 5.67722 9.07814ZM0.622818 12.6772V3.29744H1.52282V11.779H14.7114V12.679L0.622818 12.6772Z" fill="white"/>
</svg>
