<svg width="18" height="19" viewBox="0 0 18 19" fill="none" xmlns="http://www.w3.org/2000/svg">
<path d="M9.2728 10.8278L5.4228 8.62777C5.33972 8.58031 5.24569 8.55535 5.15 8.55535C5.05432 8.55535 4.96029 8.58031 4.8772 8.62777L1.0272 10.8278C0.94302 10.8759 0.873046 10.9453 0.824366 11.0292C0.775686 11.113 0.750031 11.2082 0.75 11.3052V15.7052C0.750031 15.8021 0.775686 15.8973 0.824366 15.9812C0.873046 16.065 0.94302 16.1345 1.0272 16.1826L4.8772 18.3826C4.96029 18.43 5.05432 18.455 5.15 18.455C5.24569 18.455 5.33972 18.43 5.4228 18.3826L9.2728 16.1826C9.35698 16.1345 9.42695 16.065 9.47563 15.9812C9.52431 15.8973 9.54997 15.8021 9.55 15.7052V11.3052C9.54997 11.2082 9.52431 11.113 9.47563 11.0292C9.42695 10.9453 9.35698 10.8759 9.2728 10.8278ZM5.15 9.73877L7.8912 11.3052L5.15 12.8716L2.4088 11.3052L5.15 9.73877ZM1.85 12.2528L4.6 13.8242V16.9575L1.85 15.3862V12.2528ZM5.7 16.9575V13.8242L8.45 12.2528V15.3862L5.7 16.9575ZM15.6 11.3052V14.0552C15.6 14.6618 15.1067 15.1552 14.5 15.1552H12.7554L13.6277 14.2829L12.85 13.5052L10.65 15.7052L12.85 17.9052L13.6277 17.1275L12.7554 16.2552H14.5C15.7133 16.2552 16.7 15.2685 16.7 14.0552V11.3052H15.6ZM9.8272 9.11122L8.7272 8.48257C8.64302 8.43448 8.57305 8.365 8.52437 8.28117C8.47569 8.19733 8.45003 8.10212 8.45 8.00517V6.90517H9.55V7.68617L10.3728 8.15642L9.8272 9.11122ZM14.2272 8.78507L13.4 9.25752V8.00517H12.3V9.25752L11.4728 8.78452L10.9272 9.73987L12.5772 10.6826C12.6603 10.73 12.7543 10.755 12.85 10.755C12.9457 10.755 13.0397 10.73 13.1228 10.6826L14.7728 9.73987L14.2272 8.78507ZM15.8728 9.11122L15.3272 8.15642L16.15 7.68617V6.90517H17.25V8.00517C17.25 8.10212 17.2243 8.19733 17.1756 8.28117C17.127 8.365 17.057 8.43448 16.9728 8.48257L15.8728 9.11122ZM14.2228 5.65447L13.6772 4.69912L12.85 5.17212L12.0228 4.69912L11.4772 5.65447L12.3 6.12417V6.90517H13.4V6.12417L14.2228 5.65447ZM16.9728 3.12777L15.3228 2.18452L14.7772 3.13987L15.5912 3.60517L14.7772 4.07047L15.3228 5.02527L16.15 4.55282V5.80517H17.25V3.60517C17.25 3.50822 17.2243 3.41301 17.1756 3.32917C17.127 3.24534 17.057 3.17585 16.9728 3.12777ZM13.6772 2.51177L12.85 2.03822L12.0228 2.51122L11.4772 1.55587L12.5772 0.92722C12.6603 0.87976 12.7543 0.854797 12.85 0.854797C12.9457 0.854797 13.0397 0.87976 13.1228 0.92722L14.2228 1.55587L13.6772 2.51177ZM10.9228 3.13987L10.3772 2.18507L8.7272 3.12777C8.64302 3.17585 8.57305 3.24534 8.52437 3.32917C8.47569 3.41301 8.45003 3.50822 8.45 3.60517V5.80517H9.55V4.55282L10.3772 5.02582L10.9228 4.07047L10.1088 3.60517L10.9228 3.13987ZM5.15 1.40517L4.3723 2.18287L5.2446 3.05517H3.5C2.2867 3.05517 1.3 4.04187 1.3 5.25517V8.00517H2.4V5.25517C2.4 4.64907 2.89335 4.15517 3.5 4.15517H5.2446L4.3723 5.02747L5.15 5.80517L7.35 3.60517L5.15 1.40517Z" fill="white"/>
</svg>
