<svg width="32" height="33" viewBox="0 0 32 33" fill="none" xmlns="http://www.w3.org/2000/svg">
<rect y="0.654785" width="32" height="32" rx="16" fill="url(#paint0_linear_4037_921)"/>
<path d="M10.75 22.6548C11.1642 22.6548 11.5 22.319 11.5 21.9048C11.5 21.4906 11.1642 21.1548 10.75 21.1548C10.3358 21.1548 10 21.4906 10 21.9048C10 22.319 10.3358 22.6548 10.75 22.6548Z" fill="white"/>
<path d="M10 10.6548H11.5V17.4048H10V10.6548Z" fill="white"/>
<path d="M12.25 9.15479H9.25C9.05109 9.15479 8.86032 9.2338 8.71967 9.37446C8.57902 9.51511 8.5 9.70587 8.5 9.90479V23.4048C8.5 23.6037 8.57902 23.7945 8.71967 23.9351C8.86032 24.0758 9.05109 24.1548 9.25 24.1548H12.25C12.4489 24.1548 12.6397 24.0758 12.7803 23.9351C12.921 23.7945 13 23.6037 13 23.4048V9.90479C13 9.70587 12.921 9.51511 12.7803 9.37446C12.6397 9.2338 12.4489 9.15479 12.25 9.15479ZM12.25 23.4048H9.25V9.90479H12.25V23.4048Z" fill="white"/>
<path d="M16 22.6548C16.4142 22.6548 16.75 22.319 16.75 21.9048C16.75 21.4906 16.4142 21.1548 16 21.1548C15.5858 21.1548 15.25 21.4906 15.25 21.9048C15.25 22.319 15.5858 22.6548 16 22.6548Z" fill="white"/>
<path d="M15.25 10.6548H16.75V17.4048H15.25V10.6548Z" fill="white"/>
<path d="M17.5 9.15479H14.5C14.3011 9.15479 14.1103 9.2338 13.9697 9.37446C13.829 9.51511 13.75 9.70587 13.75 9.90479V23.4048C13.75 23.6037 13.829 23.7945 13.9697 23.9351C14.1103 24.0758 14.3011 24.1548 14.5 24.1548H17.5C17.6989 24.1548 17.8897 24.0758 18.0303 23.9351C18.171 23.7945 18.25 23.6037 18.25 23.4048V9.90479C18.25 9.70587 18.171 9.51511 18.0303 9.37446C17.8897 9.2338 17.6989 9.15479 17.5 9.15479ZM17.5 23.4048H14.5V9.90479H17.5V23.4048Z" fill="white"/>
<path d="M21.25 22.6548C21.6642 22.6548 22 22.319 22 21.9048C22 21.4906 21.6642 21.1548 21.25 21.1548C20.8358 21.1548 20.5 21.4906 20.5 21.9048C20.5 22.319 20.8358 22.6548 21.25 22.6548Z" fill="white"/>
<path d="M20.5 10.6548H22V17.4048H20.5V10.6548Z" fill="white"/>
<path d="M22.75 9.15479H19.75C19.5511 9.15479 19.3603 9.2338 19.2197 9.37446C19.079 9.51511 19 9.70587 19 9.90479V23.4048C19 23.6037 19.079 23.7945 19.2197 23.9351C19.3603 24.0758 19.5511 24.1548 19.75 24.1548H22.75C22.9489 24.1548 23.1397 24.0758 23.2803 23.9351C23.421 23.7945 23.5 23.6037 23.5 23.4048V9.90479C23.5 9.70587 23.421 9.51511 23.2803 9.37446C23.1397 9.2338 22.9489 9.15479 22.75 9.15479ZM22.75 23.4048H19.75V9.90479H22.75V23.4048Z" fill="white"/>
<defs>
<linearGradient id="paint0_linear_4037_921" x1="16" y1="0.654785" x2="16" y2="32.6548" gradientUnits="userSpaceOnUse">
<stop stop-color="#C346DD"/>
<stop offset="1" stop-color="#6C42FC"/>
</linearGradient>
</defs>
</svg>
