<svg width="16" height="17" viewBox="0 0 16 17" fill="none" xmlns="http://www.w3.org/2000/svg">
<path d="M8.36 15.8548H7.20008C4.18328 15.8548 2.67488 15.8548 1.73744 14.9512C0.800003 14.0469 0.800003 12.5925 0.800003 9.68365V5.77477M0.800003 5.77477H15.2M0.800003 5.77477L1.49264 4.11301C2.02904 2.82421 2.2976 2.18053 2.84192 1.81765C3.38624 1.45477 4.0832 1.45477 5.48 1.45477H10.52C11.9161 1.45477 12.6138 1.45477 13.1581 1.81765C13.7024 2.18053 13.971 2.82493 14.5074 4.11301L15.2 5.77477M15.2 5.77477V7.57477M12.32 11.5348H12.3265M8 5.77477V1.45477M6.56 8.65477H8M12.32 8.65477C10.7288 8.65477 9.44 9.95725 9.44 11.5636C9.44 12.4823 9.8 13.1965 10.52 13.8352C11.0276 14.2845 11.6425 15.0318 12.0111 15.6373C12.1882 15.9275 12.4388 15.9275 12.6289 15.6373C13.0162 15.0433 13.6124 14.2845 14.12 13.8352C14.84 13.1965 15.2 12.4823 15.2 11.5636C15.2 9.95797 13.9112 8.65477 12.32 8.65477Z" stroke="white" stroke-width="1.08" stroke-linecap="round" stroke-linejoin="round"/>
</svg>
