<svg width="24" height="23" viewBox="0 0 24 23" fill="none" xmlns="http://www.w3.org/2000/svg">
<g filter="url(#filter0_d_4037_1197)">
<path fill-rule="evenodd" clip-rule="evenodd" d="M7.0514 3.34283C7.05127 3.38952 7.03806 3.43524 7.01328 3.47481C6.9885 3.51438 6.95314 3.54622 6.91119 3.56672C6.86925 3.58722 6.8224 3.59557 6.77596 3.59082C6.72951 3.58607 6.68532 3.56841 6.6484 3.53983L5.0554 2.30083C5.02547 2.27745 5.00127 2.24756 4.98462 2.21342C4.96797 2.17929 4.95932 2.14181 4.95932 2.10383C4.95932 2.06586 4.96797 2.02838 4.98462 1.99424C5.00127 1.96011 5.02547 1.93022 5.0554 1.90683L6.6484 0.666833C6.68546 0.638155 6.72983 0.62047 6.77645 0.615793C6.82308 0.611117 6.87008 0.619638 6.91209 0.640385C6.95411 0.661132 6.98945 0.693269 7.01408 0.733131C7.03871 0.772993 7.05164 0.818976 7.0514 0.865833V1.60583H13.0514V0.863833C13.0514 0.816972 13.0645 0.77105 13.0894 0.731307C13.1142 0.691565 13.1497 0.659601 13.1918 0.639062C13.2339 0.618523 13.281 0.610236 13.3276 0.615146C13.3742 0.620056 13.4185 0.637966 13.4554 0.666833L15.0474 1.90583C15.0773 1.92922 15.1015 1.95911 15.1182 1.99324C15.1348 2.02738 15.1435 2.06486 15.1435 2.10283C15.1435 2.14081 15.1348 2.17829 15.1182 2.21242C15.1015 2.24656 15.0773 2.27645 15.0474 2.29983L13.4554 3.53983C13.4184 3.56875 13.374 3.58667 13.3273 3.59155C13.2807 3.59642 13.2335 3.58805 13.1914 3.56739C13.1492 3.54673 13.1137 3.51461 13.089 3.47472C13.0642 3.43483 13.0512 3.38878 13.0514 3.34183V2.60383H7.0514V3.34283ZM13.5514 5.60383H6.5514C6.41879 5.60383 6.29162 5.65651 6.19785 5.75028C6.10408 5.84405 6.0514 5.97122 6.0514 6.10383V13.1038C6.0514 13.2364 6.10408 13.3636 6.19785 13.4574C6.29162 13.5512 6.41879 13.6038 6.5514 13.6038H13.5514C13.684 13.6038 13.8112 13.5512 13.905 13.4574C13.9987 13.3636 14.0514 13.2364 14.0514 13.1038V6.10383C14.0514 5.97122 13.9987 5.84405 13.905 5.75028C13.8112 5.65651 13.684 5.60383 13.5514 5.60383ZM6.5514 4.60383C6.15358 4.60383 5.77205 4.76187 5.49074 5.04317C5.20944 5.32448 5.0514 5.70601 5.0514 6.10383V13.1038C5.0514 13.5017 5.20944 13.8832 5.49074 14.1645C5.77205 14.4458 6.15358 14.6038 6.5514 14.6038H13.5514C13.9492 14.6038 14.3308 14.4458 14.6121 14.1645C14.8934 13.8832 15.0514 13.5017 15.0514 13.1038V6.10383C15.0514 5.70601 14.8934 5.32448 14.6121 5.04317C14.3308 4.76187 13.9492 4.60383 13.5514 4.60383H6.5514ZM18.7904 6.60383H18.0514V12.6038H18.7904C18.8371 12.604 18.8828 12.6172 18.9224 12.642C18.9619 12.6667 18.9938 12.7021 19.0143 12.744C19.0348 12.786 19.0431 12.8328 19.0384 12.8793C19.0336 12.9257 19.016 12.9699 18.9874 13.0068L17.7484 14.5998C17.725 14.6298 17.6951 14.654 17.661 14.6706C17.6269 14.6873 17.5894 14.6959 17.5514 14.6959C17.5134 14.6959 17.4759 14.6873 17.4418 14.6706C17.4077 14.654 17.3778 14.6298 17.3544 14.5998L16.1144 13.0068C16.0858 12.9698 16.0681 12.9256 16.0634 12.879C16.0587 12.8325 16.0671 12.7856 16.0877 12.7436C16.1084 12.7016 16.1403 12.6663 16.1801 12.6416C16.2198 12.6168 16.2656 12.6038 16.3124 12.6038H17.0514V6.60383H16.3124C16.2657 6.6037 16.22 6.5905 16.1804 6.56572C16.1409 6.54094 16.109 6.50557 16.0885 6.46363C16.068 6.42168 16.0597 6.37483 16.0644 6.32839C16.0692 6.28194 16.0868 6.23776 16.1154 6.20083L17.3544 4.60783C17.3778 4.57791 17.4077 4.5537 17.4418 4.53705C17.4759 4.5204 17.5134 4.51175 17.5514 4.51175C17.5894 4.51175 17.6269 4.5204 17.661 4.53705C17.6951 4.5537 17.725 4.57791 17.7484 4.60783L18.9884 6.20083C19.017 6.23782 19.0347 6.2821 19.0394 6.32864C19.0441 6.37517 19.0357 6.4221 19.0151 6.46408C18.9944 6.50605 18.9625 6.54141 18.9227 6.56611C18.883 6.59082 18.8372 6.60389 18.7904 6.60383Z" fill="white"/>
<path d="M18.2787 13.104L17.5511 14.0376L16.8236 13.104H18.2787ZM18.2796 6.104H16.8236L17.5511 5.16846L18.2796 6.104ZM6.55112 2.82959L5.61655 2.10303L6.55112 1.37549V2.82959ZM13.5511 1.37354L14.4867 2.10205L13.5511 2.83057V1.37354Z" stroke="white"/>
</g>
<defs>
<filter id="filter0_d_4037_1197" x="0.95932" y="0.61377" width="22.0814" height="22.0822" filterUnits="userSpaceOnUse" color-interpolation-filters="sRGB">
<feFlood flood-opacity="0" result="BackgroundImageFix"/>
<feColorMatrix in="SourceAlpha" type="matrix" values="0 0 0 0 0 0 0 0 0 0 0 0 0 0 0 0 0 0 127 0" result="hardAlpha"/>
<feOffset dy="4"/>
<feGaussianBlur stdDeviation="2"/>
<feComposite in2="hardAlpha" operator="out"/>
<feColorMatrix type="matrix" values="0 0 0 0 0 0 0 0 0 0 0 0 0 0 0 0 0 0 0.25 0"/>
<feBlend mode="normal" in2="BackgroundImageFix" result="effect1_dropShadow_4037_1197"/>
<feBlend mode="normal" in="SourceGraphic" in2="effect1_dropShadow_4037_1197" result="shape"/>
</filter>
</defs>
</svg>
