<svg width="32" height="33" viewBox="0 0 32 33" fill="none" xmlns="http://www.w3.org/2000/svg">
<rect y="0.654785" width="32" height="32" rx="16" fill="url(#paint0_linear_1_3143)"/>
<path d="M21.852 19.9988H23.524C24.0256 19.9988 24.36 19.6644 24.36 19.1628V16.6548C24.36 15.9024 23.7748 15.2336 23.106 15.0664C21.6012 14.6484 19.344 14.1468 19.344 14.1468C19.344 14.1468 18.2572 12.9764 17.5048 12.224C17.0868 11.8896 16.5852 11.6388 16 11.6388H10.148C9.6464 11.6388 9.2284 11.9732 8.9776 12.3912L7.8072 14.8156C7.6965 15.1385 7.64 15.4775 7.64 15.8188V19.1628C7.64 19.6644 7.9744 19.9988 8.476 19.9988H10.148M21.852 19.9988C21.852 20.9222 21.1034 21.6708 20.18 21.6708C19.2566 21.6708 18.508 20.9222 18.508 19.9988M21.852 19.9988C21.852 19.0754 21.1034 18.3268 20.18 18.3268C19.2566 18.3268 18.508 19.0754 18.508 19.9988M10.148 19.9988C10.148 20.9222 10.8966 21.6708 11.82 21.6708C12.7434 21.6708 13.492 20.9222 13.492 19.9988M10.148 19.9988C10.148 19.0754 10.8966 18.3268 11.82 18.3268C12.7434 18.3268 13.492 19.0754 13.492 19.9988M13.492 19.9988L18.508 19.9988" stroke="white" stroke-width="1.672" stroke-linecap="round" stroke-linejoin="round"/>
<defs>
<linearGradient id="paint0_linear_1_3143" x1="16" y1="0.654785" x2="16" y2="32.6548" gradientUnits="userSpaceOnUse">
<stop stop-color="#C346DD"/>
<stop offset="1" stop-color="#6C42FC"/>
</linearGradient>
</defs>
</svg>
