<svg width="23" height="22" viewBox="0 0 23 22" fill="none" xmlns="http://www.w3.org/2000/svg">
<path d="M17.6091 0.925339C17.1907 0.566373 16.5604 0.614589 16.2015 1.03303C15.8425 1.45148 15.8907 2.08169 16.3092 2.44066L17.6091 0.925339ZM21.1057 5.24018L21.9407 5.7872L22.4213 5.05356L21.7557 4.48252L21.1057 5.24018ZM17.0665 9.58427C16.7644 10.0454 16.8933 10.6642 17.3545 10.9663C17.8157 11.2684 18.4345 11.1395 18.7366 10.6783L17.0665 9.58427ZM7.01927 12.5183C6.73907 12.9931 6.89684 13.6051 7.37165 13.8853C7.84646 14.1655 8.45851 14.0078 8.7387 13.533L7.01927 12.5183ZM18.5438 20.317V19.3187H4.1634V20.317V21.3152H18.5438V20.317ZM1.37109 17.0233H2.36934V5.66011H1.37109H0.372844V17.0233H1.37109ZM21.3361 11.3417H20.3378V17.0233H21.3361H22.3343V11.3417H21.3361ZM4.1634 2.36642V3.36467H13.5176V2.36642V1.36817H4.1634V2.36642ZM4.1634 20.317V19.3187C3.32076 19.3187 2.36934 18.4519 2.36934 17.0233H1.37109H0.372844C0.372844 19.2328 1.92174 21.3152 4.1634 21.3152V20.317ZM18.5438 20.317V21.3152C20.7854 21.3152 22.3343 19.2328 22.3343 17.0233H21.3361H20.3378C20.3378 18.4519 19.3864 19.3187 18.5438 19.3187V20.317ZM1.37109 5.66011H2.36934C2.36934 4.23147 3.32076 3.36467 4.1634 3.36467V2.36642V1.36817C1.92174 1.36817 0.372844 3.45064 0.372844 5.66011H1.37109ZM16.9591 1.683L16.3092 2.44066L20.4557 5.99784L21.1057 5.24018L21.7557 4.48252L17.6091 0.925339L16.9591 1.683ZM21.1057 5.24018L20.2707 4.69315L17.0665 9.58427L17.9015 10.1313L18.7366 10.6783L21.9407 5.7872L21.1057 5.24018ZM7.87898 13.0256L8.7387 13.533C10.6755 10.251 14.4041 7.02193 20.4598 6.40621L20.3588 5.41308L20.2578 4.41995C13.5092 5.10613 9.24593 8.74507 7.01927 12.5183L7.87898 13.0256Z" fill="white"/>
</svg>
