<svg width="16" height="16" viewBox="0 0 16 16" fill="none" xmlns="http://www.w3.org/2000/svg">
<path d="M8.00267 16C6.89689 16 5.85689 15.7902 4.88267 15.3707C3.90904 14.9505 3.06193 14.3804 2.34133 13.6604C1.62074 12.9404 1.05037 12.0942 0.630222 11.1218C0.210074 10.1493 0 9.10963 0 8.00267C0 6.8957 0.210074 5.8557 0.630222 4.88267C1.05037 3.90904 1.62044 3.06193 2.34044 2.34133C3.06044 1.62074 3.90696 1.05037 4.88 0.630222C5.85304 0.210074 6.89304 0 8 0C8.90963 0 9.77037 0.140741 10.5822 0.422222C11.3941 0.703704 12.1345 1.0963 12.8036 1.6L12.1636 2.26133C11.5781 1.82637 10.9339 1.48859 10.2311 1.248C9.5283 1.00859 8.78459 0.888889 8 0.888889C6.02963 0.888889 4.3517 1.58163 2.96622 2.96711C1.58074 4.35259 0.888296 6.03022 0.888889 8C0.889481 9.96978 1.58222 11.6477 2.96711 13.0338C4.352 14.4199 6.02963 15.1123 8 15.1111C9.97037 15.1099 11.6483 14.4175 13.0338 13.0338C14.4193 11.6501 15.1117 9.97215 15.1111 8C15.1111 7.64207 15.0847 7.29126 15.032 6.94756C14.9799 6.60326 14.9013 6.26844 14.7964 5.94311L15.5058 5.21689C15.6687 5.65719 15.792 6.10874 15.8756 6.57156C15.9585 7.03378 16 7.50993 16 8C16 9.10696 15.7902 10.147 15.3707 11.12C14.9511 12.093 14.381 12.9399 13.6604 13.6604C12.9399 14.381 12.0936 14.9508 11.1218 15.3698C10.1499 15.7887 9.11022 15.9988 8.00267 16ZM6.72178 11.4738L3.55911 8.31111L4.18844 7.68178L6.72178 10.2151L15.3707 1.56089L16 2.18933L6.72178 11.4738Z" fill="white"/>
</svg>
