<svg width="32" height="32" viewBox="0 0 32 32" fill="none" xmlns="http://www.w3.org/2000/svg">
<rect width="32" height="32" rx="16" fill="url(#paint0_linear_4037_391)"/>
<path d="M12.7841 7.99108C11.1041 7.99108 10.2641 7.99108 9.62408 8.31808C9.06095 8.60671 8.60271 9.06495 8.31408 9.62808C7.98708 10.2701 7.98708 11.1081 7.98708 12.7881V19.1881C7.98708 20.8681 7.98708 21.7081 8.31408 22.3481C8.60271 22.9112 9.06095 23.3694 9.62408 23.6581C10.2661 23.9851 11.1041 23.9851 12.7841 23.9851H17.1841C17.9421 23.9851 18.5341 23.9851 19.0041 23.9551L18.0321 22.9831C17.7821 22.9851 17.5021 22.9851 17.1841 22.9851H12.7841C11.9271 22.9851 11.3441 22.9851 10.8941 22.9481C10.4561 22.9121 10.2311 22.8471 10.0751 22.7681C9.69877 22.5763 9.39282 22.2704 9.20108 21.8941C9.12108 21.7381 9.05608 21.5131 9.02108 21.0741C8.98408 20.6241 8.98308 20.0441 8.98308 19.1841V12.7841C8.98308 11.9281 8.98408 11.3441 9.02108 10.8941C9.05708 10.4571 9.12208 10.2321 9.20108 10.0761C9.39308 9.70008 9.69908 9.39408 10.0751 9.20208C10.2311 9.12208 10.4561 9.05708 10.8941 9.02208C11.3441 8.98508 11.9241 8.98408 12.7841 8.98408H16.9841V10.5741C17.3307 10.6374 17.6641 10.7321 17.9841 10.8581V9.32808C17.9841 9.16808 18.1341 9.04808 18.2801 9.11508C18.4421 9.18974 18.5877 9.29074 18.7171 9.41808L20.5471 11.2481C20.6757 11.3774 20.7767 11.5231 20.8501 11.6851C20.9171 11.8311 20.7971 11.9801 20.6371 11.9801H19.7611C20.0784 12.2801 20.3571 12.6134 20.5971 12.9801H20.9871V13.6861C21.3904 14.5662 21.5543 15.5373 21.4621 16.5011L21.9871 17.0261V12.3061C21.9871 11.6431 21.7241 11.0061 21.2551 10.5361L19.4251 8.70608C19.1926 8.47371 18.9167 8.28945 18.613 8.16384C18.3092 8.03824 17.9837 7.97375 17.6551 7.97408H12.7851L12.7841 7.99108Z" fill="white"/>
<path fill-rule="evenodd" clip-rule="evenodd" d="M19.9841 15.9911C19.9834 16.3497 19.9381 16.6964 19.8481 17.0311L23.4681 20.6511C23.8251 21.03 24.0205 21.5332 24.0127 22.0537C24.0049 22.5743 23.7947 23.0714 23.4265 23.4396C23.0584 23.8077 22.5613 24.0179 22.0407 24.0257C21.5201 24.0335 21.017 23.8381 20.6381 23.4811L17.0181 19.8611C16.3559 20.0397 15.6589 20.045 14.9941 19.8766C14.3292 19.7081 13.7188 19.3716 13.2216 18.8992C12.7243 18.4268 12.3569 17.8346 12.1545 17.1792C11.9522 16.5239 11.9217 15.8276 12.0661 15.1571C12.2021 14.5181 12.9831 14.4111 13.4461 14.8731L14.8661 16.2931C14.9241 16.3511 14.9955 16.3939 15.074 16.4178C15.1524 16.4417 15.2356 16.4459 15.3161 16.4301L15.9061 16.3151C16.0031 16.2958 16.0923 16.2482 16.1622 16.1782C16.2322 16.1083 16.2798 16.0191 16.2991 15.9221L16.4171 15.3301C16.4331 15.2494 16.429 15.1661 16.4051 15.0874C16.3812 15.0088 16.3382 14.9372 16.2801 14.8791L14.8701 13.4691C14.4081 13.0071 14.5161 12.2291 15.1551 12.0891C15.4231 12.0317 15.7004 12.0027 15.9871 12.0021C18.1971 12.0021 19.9871 13.7921 19.9871 16.0021L19.9841 15.9911ZM18.8841 16.7691L18.7351 17.3261L22.7651 21.3561C22.8577 21.4487 22.9311 21.5586 22.9812 21.6795C23.0313 21.8005 23.0571 21.9301 23.0571 22.0611C23.0571 22.192 23.0313 22.3217 22.9812 22.4426C22.9311 22.5636 22.8577 22.6735 22.7651 22.7661C22.6725 22.8587 22.5626 22.9321 22.4416 22.9822C22.3207 23.0323 22.191 23.0581 22.0601 23.0581C21.9291 23.0581 21.7995 23.0323 21.6785 22.9822C21.5576 22.9321 21.4477 22.8587 21.3551 22.7661L17.3251 18.7361L16.7681 18.8851C16.3095 19.0091 15.8279 19.0223 15.3632 18.9236C14.8985 18.8248 14.4639 18.617 14.0953 18.3172C13.7268 18.0174 13.4348 17.6342 13.2435 17.1994C13.0522 16.7645 12.967 16.2903 12.9951 15.8161L14.1651 16.9861C14.5181 17.3391 15.0241 17.4931 15.5151 17.3971L16.1041 17.2821C16.3955 17.2244 16.6632 17.0814 16.8733 16.8713C17.0834 16.6612 17.2264 16.3935 17.2841 16.1021L17.4021 15.5101C17.4505 15.2686 17.4383 15.0189 17.3665 14.7833C17.2948 14.5477 17.1658 14.3336 16.9911 14.1601L15.8211 12.9901C15.8744 12.9874 15.9287 12.9861 15.9841 12.9861C16.4447 12.9852 16.8993 13.0905 17.3126 13.2939C17.7259 13.4972 18.0868 13.7931 18.3671 14.1586C18.6475 14.5241 18.8398 14.9493 18.9291 15.4012C19.0184 15.853 19.0023 16.3194 18.8821 16.7641L18.8841 16.7691Z" fill="white"/>
<defs>
<linearGradient id="paint0_linear_4037_391" x1="16" y1="0" x2="16" y2="32" gradientUnits="userSpaceOnUse">
<stop stop-color="#C346DD"/>
<stop offset="1" stop-color="#6C42FC"/>
</linearGradient>
</defs>
</svg>
