<svg width="16" height="16" viewBox="0 0 16 16" fill="none" xmlns="http://www.w3.org/2000/svg">
<path d="M4.44434 9.38867H11.5557C12.6017 9.3887 13.605 9.80431 14.3447 10.5439C15.0844 11.2836 15.4999 12.287 15.5 13.333C15.5 13.9076 15.2716 14.4589 14.8652 14.8652C14.4589 15.2716 13.9076 15.5 13.333 15.5H2.66699C2.09236 15.5 1.54109 15.2716 1.13477 14.8652C0.728437 14.4589 0.5 13.9076 0.5 13.333C0.500086 12.287 0.915623 11.2836 1.65527 10.5439C2.39496 9.80431 3.39829 9.3887 4.44434 9.38867ZM8 0.5C8.81018 0.5 9.58717 0.821775 10.1602 1.39453C10.7332 1.96756 11.0557 2.74528 11.0557 3.55566C11.0556 4.36601 10.7332 5.14282 10.1602 5.71582C9.58713 6.28881 8.81036 6.61133 8 6.61133C7.18964 6.61133 6.41287 6.28881 5.83984 5.71582C5.26684 5.14282 4.94436 4.36601 4.94434 3.55566C4.94434 2.74528 5.26682 1.96756 5.83984 1.39453C6.41283 0.821775 7.18982 0.5 8 0.5Z" stroke="white"/>
</svg>
